<svg xmlns="http://www.w3.org/2000/svg" xmlns:svg="http://www.w3.org/2000/svg" id="svg12" width="512" height="512" version="1.1"><metadata id="metadata18"/><rect style="opacity:.2;stroke-width:8.35817" id="rect2" width="493.132" height="493.132" x="8.911" y="13.314" rx="24.657" ry="24.657"/><rect style="fill:#e4e4e4;stroke-width:8.35817" id="rect4" width="493.132" height="493.132" x="8.911" y="4.955" rx="24.657" ry="24.657"/><path style="opacity:.2;fill:#fff;stroke-width:8.35817" id="path6" d="m 33.560742,4.9554177 c -13.659753,0 -24.6499066,10.9901533 -24.6499066,24.6499063 v 8.358168 c 0,-13.659753 10.9901536,-24.649908 24.6499066,-24.649908 H 477.39449 c 13.65724,0 24.64823,10.990155 24.64823,24.649908 v -8.358168 c 0,-13.659753 -10.99099,-24.6499063 -24.64823,-24.6499063 z"/><path style="opacity:.1;stroke-width:8.35817" id="path8" d="m 359.95388,264.05861 c -10.86563,0 -25.07451,8.35817 -25.07451,25.07451 v 25.07449 c 0,16.71634 14.20888,25.07451 25.07451,25.07451 h 62.68625 c 0,0 12.53725,0 12.53725,12.53725 0,12.53726 -12.53725,12.53726 -12.53725,12.53726 h -87.76076 v 25.07449 h 100.29801 c 10.86562,0 25.07451,-8.35816 25.07451,-25.07449 v -25.07451 c 0,-16.71633 -14.20889,-25.07451 -25.07451,-25.07451 h -62.68625 c 0,0 -12.53725,0 -12.53725,-12.53725 0,-12.53724 12.53725,-12.53724 12.53725,-12.53724 h 87.76076 v -25.07451 z m -167.16336,0 v 100.29802 c 0,16.71633 14.20889,25.07449 25.07451,25.07449 h 100.298 v -25.07449 h -87.76075 c 0,0 -12.53725,0 -12.53725,-12.53726 0,-12.53725 12.53725,-12.53725 12.53725,-12.53725 h 87.76075 v -25.07451 h -87.76075 c 0,0 -12.53725,0 -12.53725,-12.53725 0,-12.53724 12.53725,-12.53724 12.53725,-12.53724 h 87.76075 v -25.07451 z m -142.088848,0 v 125.37251 h 25.074503 v -100.298 h 62.686265 c 12.53724,0 12.53724,12.53724 12.53724,12.53724 v 87.76076 h 25.07451 v -100.298 c 0,-16.71634 -14.20888,-25.07451 -25.07451,-25.07451 z M 259.65586,113.6116 v 100.29801 c 0,18.80588 16.71634,25.0745 25.07451,25.0745 h 75.22351 c 8.35817,0 25.0745,-6.26862 25.0745,-25.0745 V 113.6116 h -25.0745 v 87.76076 c 0,12.53725 -12.53726,12.53725 -12.53726,12.53725 h -50.149 c 0,0 -12.53725,0 -12.53725,-12.53725 V 113.6116 Z m -142.08884,0 v 125.37251 h 25.0745 v -37.61175 c 0,0 0,-12.53726 12.53726,-12.53726 h 62.68625 c 10.86561,0 25.0745,-8.35816 25.0745,-25.0745 v -25.0745 c 0,-16.71633 -14.20889,-25.0745 -25.0745,-25.0745 z m 37.61176,25.0745 h 50.149 c 0,0 12.53725,0 12.53725,12.53726 0,12.53724 -12.53725,12.53724 -12.53725,12.53724 h -50.149 c 0,0 -12.53726,0 -12.53726,-12.53724 0,-12.53726 12.53726,-12.53726 12.53726,-12.53726 z"/><path style="fill:#007f0e;stroke-width:8.35817" id="path10" d="m 359.95388,255.70044 c -10.86563,0 -25.07451,8.35817 -25.07451,25.07451 v 25.0745 c 0,16.71634 14.20888,25.0745 25.07451,25.0745 h 62.68625 c 0,0 12.53725,0 12.53725,12.53725 0,12.53726 -12.53725,12.53726 -12.53725,12.53726 h -87.76076 v 25.0745 h 100.29801 c 10.86562,0 25.07451,-8.35817 25.07451,-25.0745 v -25.07451 c 0,-16.71634 -14.20889,-25.0745 -25.07451,-25.0745 h -62.68625 c 0,0 -12.53725,0 -12.53725,-12.53725 0,-12.53725 12.53725,-12.53725 12.53725,-12.53725 h 87.76076 v -25.07451 z m -167.16336,0 v 100.29802 c 0,16.71633 14.20889,25.0745 25.07451,25.0745 h 100.298 v -25.0745 h -87.76075 c 0,0 -12.53725,0 -12.53725,-12.53726 0,-12.53725 12.53725,-12.53725 12.53725,-12.53725 h 87.76075 v -25.0745 h -87.76075 c 0,0 -12.53725,0 -12.53725,-12.53725 0,-12.53725 12.53725,-12.53725 12.53725,-12.53725 h 87.76075 v -25.07451 z m -142.088848,0 V 381.07296 H 75.776175 V 280.77495 h 62.686265 c 12.53724,0 12.53724,12.53725 12.53724,12.53725 v 87.76076 h 25.07451 V 280.77495 c 0,-16.71634 -14.20888,-25.07451 -25.07451,-25.07451 z M 259.65586,105.25343 v 100.29801 c 0,18.80587 16.71634,25.0745 25.07451,25.0745 h 75.22351 c 8.35817,0 25.0745,-6.26863 25.0745,-25.0745 V 105.25343 h -25.0745 v 87.76076 c 0,12.53725 -12.53726,12.53725 -12.53726,12.53725 h -50.149 c 0,0 -12.53725,0 -12.53725,-12.53725 v -87.76076 z m -142.08884,0 v 125.37251 h 25.0745 v -37.61175 c 0,0 0,-12.53725 12.53726,-12.53725 h 62.68625 c 10.86561,0 25.0745,-8.35817 25.0745,-25.0745 v -25.07451 c 0,-16.71633 -14.20889,-25.0745 -25.0745,-25.0745 z m 37.61176,25.0745 h 50.149 c 0,0 12.53725,0 12.53725,12.53725 0,12.53726 -12.53725,12.53726 -12.53725,12.53726 h -50.149 c 0,0 -12.53726,0 -12.53726,-12.53726 0,-12.53725 12.53726,-12.53725 12.53726,-12.53725 z"/></svg>