<svg xmlns="http://www.w3.org/2000/svg" xmlns:xlink="http://www.w3.org/1999/xlink" id="Capa_1" x="0" y="0" version="1.1" viewBox="0 0 512 512" xml:space="preserve" style="enable-background:new 0 0 512 512"><path style="fill:#ffdb2d" d="M512,396H0V296h512V396z"/><rect style="fill:#fec000" width="256" height="100" x="256" y="296"/><g><rect style="fill:#ffb74f" width="30" height="85" x="241" y="311"/><rect style="fill:#ffb74f" width="30" height="85" x="181" y="311"/><rect style="fill:#ffb74f" width="30" height="85" x="121" y="311"/><rect style="fill:#ffb74f" width="30" height="85" x="61" y="311"/></g><g><rect style="fill:#ff9a00" width="30" height="85" x="421" y="311"/><rect style="fill:#ff9a00" width="30" height="85" x="361" y="311"/><rect style="fill:#ff9a00" width="30" height="85" x="301" y="311"/><rect style="fill:#ff9a00" width="15" height="85" x="256" y="311"/></g><path style="fill:#00c379" d="M512,326H0v-90h15c8.271,0,15-6.729,15-15s-6.729-15-15-15H0v-90h512v90h-15c-8.271,0-15,6.729-15,15	s6.729,15,15,15h15V326z"/><path style="fill:#00a753" d="M497,206h15v-90H256v210h256v-90h-15c-8.271,0-15-6.729-15-15S488.729,206,497,206z"/><path style="fill:#78777f" d="M296,281h-80V161h80V281z"/><path style="fill:#57555c" d="M416,281h-80V161h80V281z"/><path style="fill:#78777f" d="M176,281H96V161h80V281z"/><path style="fill:#57555c" d="M296,281h-40V161h40V281z"/></svg>