<svg xmlns="http://www.w3.org/2000/svg" xmlns:xlink="http://www.w3.org/1999/xlink" id="Layer_1" x="0" y="0" version="1.1" viewBox="0 0 460 460" xml:space="preserve" style="enable-background:new 0 0 460 460"><g id="XMLID_1058_"><path id="XMLID_1059_" d="M336.914,143.091L230,0l-20,200l20,200c82.713,0,149.767-67.054,149.767-149.767 V126.341L336.914,143.091z" style="fill:#f0651f"/><path id="XMLID_1060_" d="M123.086,143.091l-42.853-16.749v123.892C80.233,332.946,147.287,400,230,400V0 L123.086,143.091z" style="fill:#f58330"/><polygon id="XMLID_1061_" points="383.511 460 230 460 210 430 230 400 383.511 400" style="fill:#624950"/><polygon id="XMLID_1062_" points="230 400 230 460 136.489 460 116.489 430 136.489 400" style="fill:#967151"/><rect id="XMLID_1063_" width="60" height="60" x="76.489" y="400" style="fill:#cb9851"/><path id="XMLID_1064_" d="M297.163,226.567c10.753,14.429,16.448,31.674,16.448,49.822 C313.611,322.493,276.103,360,230,360l-20-111.656l20-111.656L297.163,226.567z" style="fill:#ffc052"/><path id="XMLID_1065_" d="M230,136.688V360c-46.103,0-83.611-37.507-83.611-83.611 c0-18.148,5.695-35.393,16.49-49.875L230,136.688z" style="fill:#f9d4a0"/></g></svg>