<svg xmlns="http://www.w3.org/2000/svg" xmlns:svg="http://www.w3.org/2000/svg" xmlns:xlink="http://www.w3.org/1999/xlink" id="svg21" width="256pt" height="256pt" version="1.1" viewBox="0 0 256 256" xml:space="preserve"><metadata id="metadata27"/><defs id="defs25"><radialGradient id="radialGradient29" cx="18.805" cy="16.548" r="25.203" fx="18.805" fy="16.548" gradientUnits="userSpaceOnUse" xlink:href="#aigrd1"/><radialGradient id="radialGradient31" cx="18.805" cy="16.548" r="25.203" fx="18.805" fy="16.548" gradientUnits="userSpaceOnUse" xlink:href="#aigrd1"/></defs><g id="Layer_x0020_2" transform="matrix(5.3050846,0,0,5.3050846,0,1.3559058)" style="clip-rule:nonzero;fill-rule:nonzero;stroke:#000;stroke-miterlimit:4"><path style="fill:none;stroke:none" id="path2" d="M 48,48 H 0 V 0 h 48 z"/></g><g id="Layer_x0020_3" transform="matrix(5.3050846,0,0,5.3050846,0,1.3559058)" style="clip-rule:nonzero;fill-rule:nonzero;stroke:#000;stroke-miterlimit:4"><g id="g14"><radialGradient id="aigrd1" cx="18.805" cy="16.548" r="25.203" fx="18.805" fy="16.548" gradientUnits="userSpaceOnUse"><stop style="stop-color:#fed182" id="stop5" offset="0"/><stop style="stop-color:#ffb310" id="stop7" offset=".281"/><stop style="stop-color:#996e04" id="stop9" offset="1"/></radialGradient><path style="clip-rule:evenodd;fill:url(#radialGradient29);fill-rule:evenodd;stroke-width:5;stroke-linecap:round;stroke-linejoin:round" id="path12" d="M 37.1,10.9 27.8,22 v 0.2 l 13.9,-2.8 v 8.8 l -14,-2.3 V 26 l 9.4,10.8 -7.7,4.4 -5,-13.4 -0.2,0.1 -5,13.3 L 11.7,36.8 21,25.9 V 25.7 L 7.4,28.2 V 19.4 L 21,22.2 V 22 L 11.9,11 19.6,6.6 24.4,20 h 0.2 l 5,-13.4 7.6,4.3 z"/></g><g id="g18"><path style="clip-rule:evenodd;fill:url(#radialGradient31);fill-rule:evenodd;stroke:none" id="path16" d="M 37.1,10.9 27.8,22 v 0.2 l 13.9,-2.8 v 8.8 l -14,-2.3 V 26 l 9.4,10.8 -7.7,4.4 -5,-13.4 -0.2,0.1 -5,13.3 L 11.7,36.8 21,25.9 V 25.7 L 7.4,28.2 V 19.4 L 21,22.2 V 22 L 11.9,11 19.6,6.6 24.4,20 h 0.2 l 5,-13.4 7.6,4.3 z"/></g></g></svg>