<svg xmlns="http://www.w3.org/2000/svg" xmlns:xlink="http://www.w3.org/1999/xlink" id="Capa_1" x="0" y="0" version="1.1" viewBox="0 0 457.29 457.29" xml:space="preserve" style="enable-background:new 0 0 457.29 457.29"><g><path style="fill:#4479fa" d="M312.925,219.28c5.172,5.172,5.172,13.558,0,18.73L253,297.935v115l172.79-172.79L253,67.355v92 L312.925,219.28z"/><path style="fill:#4479fa" d="M79.925,219.28c5.172,5.172,5.172,13.558,0,18.73L20,297.935v115l172.79-172.79L20,67.355v92 L79.925,219.28z"/><path style="fill:#2c3d8e" d="M253,44.355l184.29,184.29L253,412.935v-115l59.925-59.925c5.172-5.172,5.172-13.558,0-18.73 L253,159.355V44.355 M252.996,24.354c-2.577,0-5.175,0.498-7.649,1.523C237.873,28.973,233,36.266,233,44.355v115 c0,5.304,2.107,10.391,5.858,14.142l55.148,55.148l-55.148,55.148c-3.751,3.751-5.858,8.838-5.858,14.142v115 c0,8.089,4.873,15.382,12.346,18.478c2.474,1.025,5.073,1.523,7.649,1.523c5.205,0,10.32-2.032,14.147-5.859l184.29-184.29 c7.811-7.811,7.811-20.474,0-28.284l-184.29-184.29C263.316,26.387,258.2,24.354,252.996,24.354L252.996,24.354z"/><path style="fill:#2c3d8e" d="M20,44.355l184.29,184.29L20,412.935v-115l59.925-59.925c5.172-5.172,5.172-13.558,0-18.73 L20,159.355V44.355 M19.996,24.354c-2.577,0-5.175,0.498-7.649,1.523C4.873,28.973,0,36.266,0,44.355v115 c0,5.304,2.107,10.391,5.858,14.142l55.148,55.148L5.858,283.793C2.107,287.544,0,292.631,0,297.935v115 c0,8.089,4.873,15.382,12.346,18.478c2.474,1.025,5.073,1.523,7.649,1.523c5.205,0,10.32-2.032,14.147-5.859l184.29-184.29 c7.81-7.811,7.81-20.474,0-28.284L34.142,30.213C30.316,26.387,25.2,24.354,19.996,24.354L19.996,24.354z"/></g></svg>