<svg xmlns="http://www.w3.org/2000/svg" xmlns:svg="http://www.w3.org/2000/svg" xmlns:xlink="http://www.w3.org/1999/xlink" id="svg2307" width="256" height="256" version="1.0"><defs id="defs2309"><linearGradient id="linearGradient7247"><stop style="stop-color:#fff;stop-opacity:1" id="stop7249" offset="0"/><stop style="stop-color:#fff;stop-opacity:0" id="stop7251" offset="1"/></linearGradient><linearGradient id="linearGradient7227"><stop style="stop-color:#729fcf;stop-opacity:.62213743" id="stop7229" offset="0"/><stop style="stop-color:#fff;stop-opacity:1" id="stop7231" offset="1"/></linearGradient><linearGradient id="linearGradient7221"><stop style="stop-color:#729fcf;stop-opacity:1" id="stop7223" offset="0"/><stop style="stop-color:#fff;stop-opacity:.69083971" id="stop7225" offset="1"/></linearGradient><linearGradient id="linearGradient7213"><stop id="stop7215" offset="0" style="stop-color:#9bbbdd;stop-opacity:1"/><stop style="stop-color:#b8cfe7;stop-opacity:.0295858" id="stop7219" offset=".5"/><stop id="stop7217" offset="1" style="stop-color:#fff;stop-opacity:0"/></linearGradient><linearGradient id="linearGradient8046"><stop style="stop-color:#000;stop-opacity:1" id="stop8048" offset="0"/><stop style="stop-color:#000;stop-opacity:0" id="stop8050" offset="1"/></linearGradient><linearGradient id="linearGradient7789"><stop id="stop7791" offset="0" style="stop-color:#8ae234;stop-opacity:1"/><stop id="stop7793" offset="1" style="stop-color:#73d216;stop-opacity:1"/></linearGradient><linearGradient id="linearGradient7726"><stop style="stop-color:#fff;stop-opacity:1" id="stop7728" offset="0"/><stop style="stop-color:#729fcf;stop-opacity:0" id="stop7730" offset="1"/></linearGradient><linearGradient id="linearGradient7686"><stop style="stop-color:#729fcf;stop-opacity:1" id="stop7688" offset="0"/><stop style="stop-color:#fff;stop-opacity:1" id="stop7690" offset="1"/></linearGradient><linearGradient id="linearGradient3459"><stop style="stop-color:#fff;stop-opacity:0" id="stop3461" offset="0"/><stop id="stop3467" offset=".163" style="stop-color:#fff;stop-opacity:1"/><stop style="stop-color:#fff;stop-opacity:1" id="stop3472" offset=".8"/><stop style="stop-color:#fff;stop-opacity:0" id="stop3463" offset="1"/></linearGradient><linearGradient id="linearGradient3435"><stop style="stop-color:#2e3436;stop-opacity:0" id="stop3437" offset="0"/><stop id="stop3449" offset=".193" style="stop-color:#2e3436;stop-opacity:1"/><stop style="stop-color:#2e3436;stop-opacity:1" id="stop3453" offset=".7"/><stop style="stop-color:#2e3436;stop-opacity:0" id="stop3439" offset="1"/></linearGradient><linearGradient id="linearGradient3427"><stop style="stop-color:#555753;stop-opacity:0" id="stop3429" offset="0"/><stop id="stop3445" offset=".348" style="stop-color:#6d6f6a;stop-opacity:1"/><stop style="stop-color:#6f726c;stop-opacity:1" id="stop3447" offset=".793"/><stop style="stop-color:#555753;stop-opacity:0" id="stop3431" offset="1"/></linearGradient><linearGradient id="linearGradient3390"><stop style="stop-color:#fff;stop-opacity:0" id="stop3392" offset="0"/><stop style="stop-color:#fff;stop-opacity:1" id="stop3394" offset="1"/></linearGradient><linearGradient id="linearGradient3345"><stop style="stop-color:#fff;stop-opacity:1" id="stop3347" offset="0"/><stop style="stop-color:#fff;stop-opacity:0" id="stop3349" offset="1"/></linearGradient><linearGradient id="linearGradient2397"><stop style="stop-color:#fff;stop-opacity:1" id="stop2399" offset="0"/><stop style="stop-color:#fff;stop-opacity:0" id="stop2401" offset="1"/></linearGradient><linearGradient id="linearGradient2508"><stop style="stop-color:#fff;stop-opacity:1" id="stop2510" offset="0"/><stop style="stop-color:#fff;stop-opacity:0" id="stop2512" offset="1"/></linearGradient><linearGradient id="linearGradient3524"><stop id="stop5270" offset="0" style="stop-color:#729fcf;stop-opacity:0"/><stop style="stop-color:#729fcf;stop-opacity:0" id="stop5272" offset=".85"/><stop id="stop3528" offset="1" style="stop-color:#729fcf;stop-opacity:1"/></linearGradient><linearGradient id="linearGradient4457"><stop style="stop-color:#c00" id="stop4459" offset="0"/><stop style="stop-color:#ef2929" id="stop4461" offset="1"/></linearGradient><linearGradient id="linearGradient5639" x1="28.976" x2="29" y1="31.07" y2="40.005" gradientTransform="translate(-1,-1)" gradientUnits="userSpaceOnUse" xlink:href="#linearGradient4457"/><linearGradient id="linearGradient5643" x1="28.976" x2="29" y1="31.07" y2="40.005" gradientTransform="matrix(0.750053,0,0,0.750052,49.87293,11.12351)" gradientUnits="userSpaceOnUse" xlink:href="#linearGradient4457"/><linearGradient id="linearGradient5654" x1="28.976" x2="29" y1="31.07" y2="40.005" gradientTransform="translate(-222.45316,-277.85765)" gradientUnits="userSpaceOnUse" xlink:href="#linearGradient4457"/><radialGradient id="radialGradient5875" cx="9.375" cy="9.375" r="9.375" fx="9.375" fy="9.375" gradientUnits="userSpaceOnUse" xlink:href="#linearGradient3524"/><radialGradient id="radialGradient5877" cx="9.375" cy="9.375" r="9.375" fx="9.375" fy="9.375" gradientUnits="userSpaceOnUse" xlink:href="#linearGradient3524"/><radialGradient id="radialGradient5879" cx="9.375" cy="9.375" r="9.375" fx="9.375" fy="9.375" gradientUnits="userSpaceOnUse" xlink:href="#linearGradient3524"/><linearGradient id="linearGradient8016" x1="32.427" x2="28.5" y1="9.123" y2="18.521" gradientTransform="translate(5)" gradientUnits="userSpaceOnUse" xlink:href="#linearGradient7789"/><radialGradient id="radialGradient8018" cx="31.635" cy="39.243" r="6.187" fx="31.635" fy="39.243" gradientTransform="matrix(0.8459014,0,-2.6674958e-8,0.2782165,5.0485079,30.343064)" gradientUnits="userSpaceOnUse" xlink:href="#linearGradient2508"/><linearGradient id="linearGradient8020" x1="33.786" x2="35.606" y1="40.792" y2="43.406" gradientUnits="userSpaceOnUse" xlink:href="#linearGradient2397"/><linearGradient id="linearGradient8022" x1="18.489" x2="18.489" y1="8.672" y2="24.706" gradientUnits="userSpaceOnUse" xlink:href="#linearGradient3345"/><linearGradient id="linearGradient8024" x1="18.489" x2="18.489" y1="8.672" y2="24.706" gradientUnits="userSpaceOnUse" xlink:href="#linearGradient3345"/><radialGradient id="radialGradient8026" cx="33.457" cy="19.957" r="7" fx="33.457" fy="19.957" gradientTransform="matrix(0.9037069,-0.5217554,0.9177806,1.5896425,-14.147728,4.4338202)" gradientUnits="userSpaceOnUse" xlink:href="#linearGradient3390"/><linearGradient id="linearGradient8028" x1="18.489" x2="18.489" y1="8.672" y2="24.706" gradientUnits="userSpaceOnUse" xlink:href="#linearGradient3345"/><linearGradient id="linearGradient8030" x1="18.489" x2="18.489" y1="8.672" y2="24.706" gradientUnits="userSpaceOnUse" xlink:href="#linearGradient3345"/><radialGradient id="radialGradient8032" cx="31.635" cy="39.243" r="6.187" fx="31.635" fy="39.243" gradientTransform="matrix(0.8459014,0,-2.6674958e-8,0.2782165,5.0485079,30.343064)" gradientUnits="userSpaceOnUse" xlink:href="#linearGradient2508"/><linearGradient id="linearGradient8034" x1="33.786" x2="35.606" y1="40.792" y2="43.406" gradientUnits="userSpaceOnUse" xlink:href="#linearGradient2397"/><radialGradient id="radialGradient8052" cx="38.813" cy="39.813" r="8.688" fx="38.813" fy="39.813" gradientTransform="matrix(4.5729569,0,0,1.823003,15.7589,-80.912445)" gradientUnits="userSpaceOnUse" xlink:href="#linearGradient8046"/><radialGradient id="radialGradient7253" cx="30.5" cy="6.293" r="7" fx="30.5" fy="6.293" gradientTransform="matrix(9.0118877,0,0,6.2359047,-99.868982,-186.75702)" gradientUnits="userSpaceOnUse" xlink:href="#linearGradient7247"/><linearGradient id="linearGradient7255" x1="13.125" x2="13.125" y1="7.001" y2="1.5" gradientTransform="matrix(0.8,0,0,1,2.4,-1)" gradientUnits="userSpaceOnUse" xlink:href="#linearGradient7726"/><linearGradient id="linearGradient7257" x1="12.625" x2="12.625" y1="21.122" y2="31.003" gradientTransform="matrix(0.8,0,0,1,2.4,-13)" gradientUnits="userSpaceOnUse" xlink:href="#linearGradient7227"/><linearGradient id="linearGradient7259" x1="12.625" x2="12.625" y1="21.122" y2="31.003" gradientTransform="matrix(0.8,0,0,1,2.4,-1)" gradientUnits="userSpaceOnUse" xlink:href="#linearGradient7686"/><linearGradient id="linearGradient7261" x1="12.625" x2="12.625" y1="20.372" y2="28.762" gradientTransform="matrix(0.8,0,0,1,2.4,23)" gradientUnits="userSpaceOnUse" xlink:href="#linearGradient7213"/><linearGradient id="linearGradient7263" x1="12.625" x2="12.625" y1="21.122" y2="31.003" gradientTransform="matrix(0.8,0,0,1,2.4,11)" gradientUnits="userSpaceOnUse" xlink:href="#linearGradient7221"/><linearGradient id="linearGradient7271" x1="17.375" x2="17.375" y1="47.875" y2="1.881" gradientTransform="translate(1,-1)" gradientUnits="userSpaceOnUse" xlink:href="#linearGradient3427"/><linearGradient id="linearGradient7273" x1="10" x2="10" y1="49.613" y2=".75" gradientTransform="translate(1,-1)" gradientUnits="userSpaceOnUse" xlink:href="#linearGradient3435"/><linearGradient id="linearGradient7275" x1="12.875" x2="12.875" y1="1.25" y2="47.25" gradientUnits="userSpaceOnUse" xlink:href="#linearGradient3459"/></defs><metadata id="metadata2312"/><g id="layer1" transform="translate(0,208)" style="display:inline"><g id="g3681" transform="translate(-80,60)" style="opacity:0"><rect id="rect3675" width="48" height="48" x="0" y="0" style="opacity:.25999989;fill:#000;fill-opacity:1;stroke:none;stroke-width:1;stroke-linecap:round;stroke-linejoin:miter;stroke-miterlimit:4;stroke-dasharray:none;stroke-dashoffset:0;stroke-opacity:1"/><rect id="rect3677" width="48" height="48" x="-80" y="0" style="opacity:.25999989;fill:#000;fill-opacity:1;stroke:none;stroke-width:1;stroke-linecap:round;stroke-linejoin:miter;stroke-miterlimit:4;stroke-dasharray:none;stroke-dashoffset:0;stroke-opacity:1"/><rect id="rect3679" width="48" height="48" x="-160" y="0" style="opacity:.25999989;fill:#000;fill-opacity:1;stroke:none;stroke-width:1;stroke-linecap:round;stroke-linejoin:miter;stroke-miterlimit:4;stroke-dasharray:none;stroke-dashoffset:0;stroke-opacity:1"/></g><rect id="rect1315" width="16" height="16" x="-203.453" y="-253.858" style="color:#000;display:none;overflow:visible;visibility:visible;fill:#d3d7cf;fill-opacity:1;fill-rule:evenodd;stroke:none;stroke-width:1;stroke-linecap:round;stroke-linejoin:miter;stroke-miterlimit:4;stroke-dasharray:none;stroke-dashoffset:0;stroke-opacity:1;marker:none;marker-start:none;marker-mid:none;marker-end:none"/><rect id="rect3481" width="22" height="22" x="-203.453" y="-227.858" style="color:#000;display:none;overflow:visible;visibility:visible;fill:#d3d7cf;fill-opacity:1;fill-rule:evenodd;stroke:none;stroke-width:1;stroke-linecap:round;stroke-linejoin:miter;stroke-miterlimit:4;stroke-dasharray:none;stroke-dashoffset:0;stroke-opacity:1;marker:none;marker-start:none;marker-mid:none;marker-end:none"/><circle id="path3584" cx="9.375" cy="9.375" r="9.375" transform="matrix(1.706666,0,0,1.706666,-151.45316,-198.85765)" style="color:#000;display:none;overflow:visible;visibility:visible;fill:url(#radialGradient5875);fill-opacity:1;fill-rule:evenodd;stroke:none;stroke-width:.60878164;stroke-linecap:round;stroke-linejoin:miter;stroke-miterlimit:4;stroke-dasharray:none;stroke-dashoffset:0;stroke-opacity:1;marker:none;marker-start:none;marker-mid:none;marker-end:none"/><circle id="path3586" cx="9.375" cy="9.375" r="9.375" transform="matrix(2.133334,0,0,2.133334,-155.45316,-202.85766)" style="color:#000;display:none;overflow:visible;visibility:visible;fill:url(#radialGradient5877);fill-opacity:1;fill-rule:evenodd;stroke:none;stroke-width:.48148614;stroke-linecap:round;stroke-linejoin:miter;stroke-miterlimit:4;stroke-dasharray:none;stroke-dashoffset:0;stroke-opacity:1;marker:none;marker-start:none;marker-mid:none;marker-end:none"/><circle id="path3588" cx="9.375" cy="9.375" r="9.375" transform="matrix(2.559999,0,0,2.559999,-159.45316,-206.85765)" style="color:#000;display:none;overflow:visible;visibility:visible;fill:url(#radialGradient5879);fill-opacity:1;fill-rule:evenodd;stroke:none;stroke-width:.39974412;stroke-linecap:round;stroke-linejoin:miter;stroke-miterlimit:4;stroke-dasharray:none;stroke-dashoffset:0;stroke-opacity:1;marker:none;marker-start:none;marker-mid:none;marker-end:none"/><g id="g3977" transform="translate(-339.45321,-219.35765)" style="display:none"><ellipse style="color:#000;display:inline;overflow:visible;visibility:visible;fill:#000;fill-opacity:1;fill-rule:evenodd;stroke:none;stroke-width:1;stroke-linecap:round;stroke-linejoin:round;stroke-miterlimit:4;stroke-dasharray:none;stroke-dashoffset:0;stroke-opacity:1;marker:none;marker-start:none;marker-mid:none;marker-end:none" id="path3954" cx="55.25" cy="28.5" rx="1.75" ry="1" transform="matrix(1.142857,0,0,1.5,-11.14285,-8.25)"/><rect style="color:#000;display:inline;overflow:visible;visibility:visible;fill:#000;fill-opacity:1;fill-rule:evenodd;stroke:none;stroke-width:1;stroke-linecap:round;stroke-linejoin:round;stroke-miterlimit:4;stroke-dasharray:none;stroke-dashoffset:0;stroke-opacity:1;marker:none;marker-start:none;marker-mid:none;marker-end:none" id="rect3956" width="1" height="8.5" x="53" y="26"/><path style="fill:#000;fill-opacity:1;fill-rule:evenodd;stroke:none;stroke-width:1px;stroke-linecap:butt;stroke-linejoin:miter;stroke-opacity:1" id="path3964" d="m 54,26 c 2,0 1.5,3 2.5,2.999999 C 54.5,29 56,27.5 54,27.5 Z"/></g><g id="g3997" transform="translate(-339.45321,-219.35765)" style="display:none"><ellipse style="color:#000;display:inline;overflow:visible;visibility:visible;fill:#000;fill-opacity:1;fill-rule:evenodd;stroke:none;stroke-width:1;stroke-linecap:round;stroke-linejoin:round;stroke-miterlimit:4;stroke-dasharray:none;stroke-dashoffset:0;stroke-opacity:1;marker:none;marker-start:none;marker-mid:none;marker-end:none" id="path3984" cx="55.25" cy="28.5" rx="1.75" ry="1" transform="matrix(1.142857,0,0,1.5,-2.642849,-8.25)"/><rect style="color:#000;display:inline;overflow:visible;visibility:visible;fill:#000;fill-opacity:1;fill-rule:evenodd;stroke:none;stroke-width:1;stroke-linecap:round;stroke-linejoin:round;stroke-miterlimit:4;stroke-dasharray:none;stroke-dashoffset:0;stroke-opacity:1;marker:none;marker-start:none;marker-mid:none;marker-end:none" id="rect3986" width="1" height="8.5" x="61.5" y="26"/><path style="fill:#000;fill-opacity:1;fill-rule:evenodd;stroke:none;stroke-width:1px;stroke-linecap:butt;stroke-linejoin:miter;stroke-opacity:1" id="path3988" d="M 62.500001,26 C 64.5,26 64,28.500001 65,28.5 c -1.500001,1e-6 -0.499999,-1 -2.499999,-1 z"/><path style="display:inline;fill:#000;fill-opacity:1;fill-rule:evenodd;stroke:none;stroke-width:1px;stroke-linecap:butt;stroke-linejoin:miter;stroke-opacity:1" id="path3995" d="M 62.500001,28 C 64.5,28 64,30.500001 65,30.5 c -1.500001,1e-6 -0.499999,-1 -2.499999,-1 z"/></g><g style="display:none" id="g4113" transform="translate(-261.45316,-253.85765)"><ellipse style="color:#000;display:inline;overflow:visible;visibility:visible;fill:#000;fill-opacity:1;fill-rule:evenodd;stroke:none;stroke-width:1;stroke-linecap:round;stroke-linejoin:round;stroke-miterlimit:4;stroke-dasharray:none;stroke-dashoffset:0;stroke-opacity:1;marker:none;marker-start:none;marker-mid:none;marker-end:none" id="path4005" cx="55.25" cy="28.5" rx="1.75" ry="1" transform="matrix(-1.142857,0,0,-1.5,56.14275,104.75)"/><rect style="color:#000;display:inline;overflow:visible;visibility:visible;fill:#000;fill-opacity:1;fill-rule:evenodd;stroke:none;stroke-width:1;stroke-linecap:round;stroke-linejoin:round;stroke-miterlimit:4;stroke-dasharray:none;stroke-dashoffset:0;stroke-opacity:1;marker:none;marker-start:none;marker-mid:none;marker-end:none" id="rect4007" width="1" height="8.5" x="8" y="-70.5" transform="scale(-1)"/><path style="display:inline;fill:#000;fill-opacity:1;fill-rule:evenodd;stroke:none;stroke-width:1px;stroke-linecap:butt;stroke-linejoin:miter;stroke-opacity:1" id="path4009" d="m -8.00005,70.499999 c 2,0 1.5,-3 2.5,-2.999999 -2,-10e-7 -0.5,1.499999 -2.5,1.499999 z"/></g><g id="g4028" transform="translate(-339.95316,-219.35765)" style="display:none"><ellipse style="color:#000;display:inline;overflow:visible;visibility:visible;fill:#000;fill-opacity:1;fill-rule:evenodd;stroke:none;stroke-width:1;stroke-linecap:round;stroke-linejoin:round;stroke-miterlimit:4;stroke-dasharray:none;stroke-dashoffset:0;stroke-opacity:1;marker:none;marker-start:none;marker-mid:none;marker-end:none" id="path4016" cx="55.25" cy="28.5" rx="1.75" ry="1" transform="matrix(-1.142857,0,0,-1.5,142.6428,70.25)"/><rect style="color:#000;display:inline;overflow:visible;visibility:visible;fill:#000;fill-opacity:1;fill-rule:evenodd;stroke:none;stroke-width:1;stroke-linecap:round;stroke-linejoin:round;stroke-miterlimit:4;stroke-dasharray:none;stroke-dashoffset:0;stroke-opacity:1;marker:none;marker-start:none;marker-mid:none;marker-end:none" id="rect4018" width="1" height="8.5" x="-78.5" y="-36" transform="scale(-1)"/><path style="fill:#000;fill-opacity:1;fill-rule:evenodd;stroke:none;stroke-width:1px;stroke-linecap:butt;stroke-linejoin:miter;stroke-opacity:1" id="path4020" d="M 78.500001,36 C 80.5,36 80,33.499999 81,33.5 c -1.500001,-10e-7 -0.499999,1 -2.499999,1 z"/><path style="display:inline;fill:#000;fill-opacity:1;fill-rule:evenodd;stroke:none;stroke-width:1px;stroke-linecap:butt;stroke-linejoin:miter;stroke-opacity:1" id="path4022" d="M 78.500001,34 C 80.5,34 80,31.499999 81,31.5 c -1.500001,-1e-6 -0.499999,1 -2.499999,1 z"/></g><g style="display:none" id="g4074" transform="translate(-260.45316,-254.85765)"><ellipse style="color:#000;display:inline;overflow:visible;visibility:visible;fill:#000;fill-opacity:1;fill-rule:evenodd;stroke:none;stroke-width:1;stroke-linecap:round;stroke-linejoin:round;stroke-miterlimit:4;stroke-dasharray:none;stroke-dashoffset:0;stroke-opacity:1;marker:none;marker-start:none;marker-mid:none;marker-end:none" id="path4053" cx="55.25" cy="28.5" rx="1.75" ry="1" transform="matrix(1.142857,0,0,1.5,-89.14285,39.75)"/><path style="color:#000;display:inline;overflow:visible;visibility:visible;fill:#000;fill-opacity:1;fill-rule:evenodd;stroke:none;stroke-width:1;stroke-linecap:round;stroke-linejoin:round;stroke-miterlimit:4;stroke-dashoffset:0;stroke-opacity:1;marker:none;marker-start:none;marker-mid:none;marker-end:none" id="rect4055" d="m -25,74 6,1.5 V 84 h -1 v -7 l -4,-1 v 6.5 h -1 z"/><ellipse style="color:#000;display:inline;overflow:visible;visibility:visible;fill:#000;fill-opacity:1;fill-rule:evenodd;stroke:none;stroke-width:1;stroke-linecap:round;stroke-linejoin:round;stroke-miterlimit:4;stroke-dasharray:none;stroke-dashoffset:0;stroke-opacity:1;marker:none;marker-start:none;marker-mid:none;marker-end:none" id="path4061" cx="55.25" cy="28.5" rx="1.75" ry="1" transform="matrix(1.142857,0,0,1.5,-84.14285,41.25)"/></g><g style="display:none" id="g4090" transform="translate(-261.95316,-255.85765)"><ellipse style="color:#000;display:inline;overflow:visible;visibility:visible;fill:#000;fill-opacity:1;fill-rule:evenodd;stroke:none;stroke-width:1;stroke-linecap:round;stroke-linejoin:round;stroke-miterlimit:4;stroke-dasharray:none;stroke-dashoffset:0;stroke-opacity:1;marker:none;marker-start:none;marker-mid:none;marker-end:none" id="path4081" cx="55.25" cy="28.5" rx="1.75" ry="1" transform="matrix(1.142857,0,0,-1.5,-74.64285,120.75)"/><path style="color:#000;display:inline;overflow:visible;visibility:visible;fill:#000;fill-opacity:1;fill-rule:evenodd;stroke:none;stroke-width:1;stroke-linecap:round;stroke-linejoin:round;stroke-miterlimit:4;stroke-dashoffset:0;stroke-opacity:1;marker:none;marker-start:none;marker-mid:none;marker-end:none" id="path4083" d="m -13.5,86.5 6,-1.5 v -8.5 h -1 v 7 l -4,1 V 78 h -1 z"/><ellipse style="color:#000;display:inline;overflow:visible;visibility:visible;fill:#000;fill-opacity:1;fill-rule:evenodd;stroke:none;stroke-width:1;stroke-linecap:round;stroke-linejoin:round;stroke-miterlimit:4;stroke-dasharray:none;stroke-dashoffset:0;stroke-opacity:1;marker:none;marker-start:none;marker-mid:none;marker-end:none" id="path4085" cx="55.25" cy="28.5" rx="1.75" ry="1" transform="matrix(1.142857,0,0,-1.5,-69.64285,119.25)"/></g><circle id="path5560" cx="64" cy="37" r="16" transform="translate(-197.94836,-174.85285)" style="color:#000;display:none;overflow:visible;visibility:visible;fill:#5c3566;fill-opacity:1;fill-rule:evenodd;stroke:none;stroke-width:1;stroke-linecap:round;stroke-linejoin:round;stroke-miterlimit:4;stroke-dasharray:none;stroke-dashoffset:0;stroke-opacity:1;marker:none;marker-start:none;marker-mid:none;marker-end:none"/><circle id="path5562" cx="64" cy="37" r="16" transform="matrix(0.7503,0,0,0.7503,-181.96756,-165.61395)" style="color:#000;display:none;overflow:visible;visibility:visible;fill:#75507b;fill-opacity:1;fill-rule:evenodd;stroke:none;stroke-width:1;stroke-linecap:round;stroke-linejoin:round;stroke-miterlimit:4;stroke-dasharray:none;stroke-dashoffset:0;stroke-opacity:1;marker:none;marker-start:none;marker-mid:none;marker-end:none"/><circle id="path5564" cx="64" cy="37" r="16" transform="matrix(0.499916,0,0,0.499916,-165.943,-156.34975)" style="color:#000;display:none;overflow:visible;visibility:visible;fill:#ad7fa8;fill-opacity:1;fill-rule:evenodd;stroke:none;stroke-width:1;stroke-linecap:round;stroke-linejoin:round;stroke-miterlimit:4;stroke-dasharray:none;stroke-dashoffset:0;stroke-opacity:1;marker:none;marker-start:none;marker-mid:none;marker-end:none"/><g style="display:none" id="g4489" transform="translate(-261.45316,-254.85765)"><rect style="color:#000;display:inline;overflow:visible;visibility:visible;fill:url(#linearGradient5639);fill-opacity:1;fill-rule:evenodd;stroke:#a40000;stroke-width:1;stroke-linecap:round;stroke-linejoin:miter;stroke-miterlimit:4;stroke-dasharray:none;stroke-dashoffset:0;stroke-opacity:1;marker:none;marker-start:none;marker-mid:none;marker-end:none" id="rect4451" width="12" height="12" x="26.5" y="27.5" ry="1.085"/><g id="g4467" transform="translate(-2.000047,-2.00005)"><rect id="rect4463" width="9" height="2" x="44.998" y="-.293" ry="0" transform="rotate(45)" style="color:#000;display:inline;overflow:visible;visibility:visible;opacity:1;fill:#fff;fill-opacity:1;fill-rule:evenodd;stroke:none;stroke-width:1;stroke-linecap:round;stroke-linejoin:miter;stroke-miterlimit:4;stroke-dasharray:none;stroke-dashoffset:0;stroke-opacity:1;marker:none;marker-start:none;marker-mid:none;marker-end:none"/><rect id="rect4465" width="9" height="2" x="-3.793" y="48.498" ry="0" transform="matrix(-0.707107,0.707107,0.707107,0.707107,0,0)" style="color:#000;display:inline;overflow:visible;visibility:visible;opacity:1;fill:#fff;fill-opacity:1;fill-rule:evenodd;stroke:none;stroke-width:1;stroke-linecap:round;stroke-linejoin:miter;stroke-miterlimit:4;stroke-dasharray:none;stroke-dashoffset:0;stroke-opacity:1;marker:none;marker-start:none;marker-mid:none;marker-end:none"/></g><rect id="rect4479" width="10" height="10" x="27.5" y="28.5" ry="0" style="color:#000;display:inline;overflow:visible;visibility:visible;opacity:1;fill:none;fill-opacity:1;fill-rule:evenodd;stroke:#ef2929;stroke-width:1;stroke-linecap:round;stroke-linejoin:round;stroke-miterlimit:4;stroke-dasharray:none;stroke-dashoffset:0;stroke-opacity:1;marker:none;marker-start:none;marker-mid:none;marker-end:none"/></g><rect style="color:#000;display:none;overflow:visible;visibility:visible;fill:url(#linearGradient5654);fill-opacity:1;fill-rule:evenodd;stroke:#a40000;stroke-width:1;stroke-linecap:round;stroke-linejoin:miter;stroke-miterlimit:4;stroke-dasharray:none;stroke-dashoffset:0;stroke-opacity:1;marker:none;marker-start:none;marker-mid:none;marker-end:none" id="rect4506" width="7" height="7" x="-194.953" y="-249.358" ry="1.085"/><path id="path4510" d="m -193.95316,-247.35765 1,-1 4,4 -1,1 z" style="display:none;fill:#fff;fill-opacity:1;fill-rule:evenodd;stroke:none;stroke-width:1px;stroke-linecap:butt;stroke-linejoin:miter;stroke-opacity:1"/><path id="path4512" d="m -192.95316,-243.35765 -1,-1 4,-4 1,1 z" style="display:none;fill:#fff;fill-opacity:1;fill-rule:evenodd;stroke:none;stroke-width:1px;stroke-linecap:butt;stroke-linejoin:miter;stroke-opacity:1"/><g style="display:none" id="g5709" transform="translate(-261.45316,-253.85765)"><rect style="color:#000;display:inline;overflow:visible;visibility:visible;fill:url(#linearGradient5643);fill-opacity:1;fill-rule:evenodd;stroke:#a40000;stroke-width:1;stroke-linecap:round;stroke-linejoin:miter;stroke-miterlimit:4;stroke-dasharray:none;stroke-dashoffset:0;stroke-opacity:1;marker:none;marker-start:none;marker-mid:none;marker-end:none" id="rect5674" width="9.001" height="9.001" x="70.499" y="32.5" ry=".993"/><rect id="rect5682" width="7" height="7" x="71.5" y="33.5" ry="0" style="color:#000;display:inline;overflow:visible;visibility:visible;fill:none;fill-opacity:1;fill-rule:evenodd;stroke:#ef2929;stroke-width:1;stroke-linecap:round;stroke-linejoin:round;stroke-miterlimit:4;stroke-dasharray:none;stroke-dashoffset:0;stroke-opacity:1;marker:none;marker-start:none;marker-mid:none;marker-end:none"/><g id="g5705"><path id="path5693" d="m 72.5,35.5 1,-1 4,4 -1,1 z" style="display:inline;fill:#fff;fill-opacity:1;fill-rule:evenodd;stroke:none;stroke-width:1px;stroke-linecap:butt;stroke-linejoin:miter;stroke-opacity:1"/><path id="path5695" d="m 73.5,39.5 -1,-1 4,-4 1,1 z" style="display:inline;fill:#fff;fill-opacity:1;fill-rule:evenodd;stroke:none;stroke-width:1px;stroke-linecap:butt;stroke-linejoin:miter;stroke-opacity:1"/></g></g><ellipse style="opacity:.35;fill:url(#radialGradient8052);fill-opacity:1;fill-rule:evenodd;stroke:none;stroke-width:4.43173409;stroke-linecap:round;stroke-linejoin:miter;stroke-miterlimit:10;stroke-dasharray:none;stroke-opacity:1" id="path8036" cx="193.247" cy="-8.334" rx="39.728" ry="15.837"/><g id="g7235" transform="matrix(4.2948718,0,0,4.2948718,35.410257,-188.98718)" style="opacity:.9"><path id="rect3561" d="m 2.5,-16.5 v 77 h 2 v -1 h 2 v 1 h 15 v -1 h 2 v 1 h 2 v -77 h -2 v 2 h -2 v -2 h -15 v 2 h -2 v -2 z m 2,4 h 2 v 2 h -2 z m 17,0 h 2 v 2 h -2 z m -17,4 h 2 v 2 h -2 z m 17,0 h 2 v 2 h -2 z m -17,4 h 2 v 2 h -2 z m 17,0 h 2 v 2 h -2 z m -17,4 h 2 v 2 h -2 z m 17,0 h 2 v 2 h -2 z m -17,4 h 2 v 2 h -2 z m 17,0 h 2 v 2 h -2 z m -17,4 h 2 v 2 h -2 z m 17,0 h 2 v 2 h -2 z m -17,4 h 2 v 2 h -2 z m 17,0 h 2 v 2 h -2 z m -17,4 h 2 v 2 h -2 z m 17,0 h 2 v 2 h -2 z m -17,4 h 2 v 2 h -2 z m 17,0 h 2 v 2 h -2 z m -17,4 h 2 v 2 h -2 z m 17,0 h 2 v 2 h -2 z m -17,4 h 2 v 2 h -2 z m 17,0 h 2 v 2 h -2 z m -17,4 h 2 v 2 h -2 z m 17,0 h 2 v 2 h -2 z m -17,4 h 2 v 2 h -2 z m 17,0 h 2 v 2 h -2 z m -17,4 h 2 v 2 h -2 z m 17,0 h 2 v 2 h -2 z m -17,4 h 2 v 2 h -2 z m 17,0 h 2 v 2 h -2 z m -17,4 h 2 v 2 h -2 z m 17,0 h 2 v 2 h -2 z m -17,4 h 2 v 2 h -2 z m 17,0 h 2 v 2 h -2 z m -17,4 h 2 v 2 h -2 z m 17,0 h 2 v 2 h -2 z" style="opacity:1;fill:url(#linearGradient7271);fill-opacity:1;stroke:url(#linearGradient7273);stroke-width:1;stroke-linecap:round;stroke-linejoin:miter;stroke-miterlimit:4;stroke-dasharray:none;stroke-dashoffset:0;stroke-opacity:1"/><path id="rect3558" d="M 8,19 H 20 V 30 H 8 Z" style="opacity:1;fill:url(#linearGradient7259);fill-opacity:1;stroke:none;stroke-width:1;stroke-linecap:round;stroke-linejoin:miter;stroke-miterlimit:4;stroke-dashoffset:0;stroke-opacity:1"/><path id="rect6707" d="m 3.5,-15.5 h 21 v 74.999992 h -21 z" style="opacity:.3;fill:none;fill-opacity:1;fill-rule:evenodd;stroke:url(#linearGradient7275);stroke-width:.99999994;stroke-linecap:round;stroke-linejoin:miter;stroke-miterlimit:10;stroke-opacity:1"/><path id="rect7694" d="M 8,7 H 20 V 18 H 8 Z" style="display:inline;opacity:1;fill:url(#linearGradient7257);fill-opacity:1;stroke:none;stroke-width:1;stroke-linecap:round;stroke-linejoin:miter;stroke-miterlimit:4;stroke-dashoffset:0;stroke-opacity:1"/><path id="rect7698" d="M 8,-5 H 20 V 6 H 8 Z" style="display:inline;opacity:.5;fill:url(#linearGradient7255);fill-opacity:1;stroke:none;stroke-width:1;stroke-linecap:round;stroke-linejoin:miter;stroke-miterlimit:4;stroke-dashoffset:0;stroke-opacity:1"/><path id="rect7702" d="M 8,31 H 20 V 42 H 8 Z" style="display:inline;opacity:1;fill:url(#linearGradient7263);fill-opacity:1;stroke:none;stroke-width:1;stroke-linecap:round;stroke-linejoin:miter;stroke-miterlimit:4;stroke-dashoffset:0;stroke-opacity:1"/><path id="path7209" d="M 8,43 H 20 V 54 H 8 Z" style="display:inline;opacity:.7462692;fill:url(#linearGradient7261);fill-opacity:1;stroke:none;stroke-width:1;stroke-linecap:round;stroke-linejoin:miter;stroke-miterlimit:4;stroke-dashoffset:0;stroke-opacity:1"/></g><g id="g8005" transform="matrix(4.2948718,0,0,4.2948718,22.525641,-184.6923)"><path style="color:#000;display:inline;overflow:visible;visibility:visible;fill:url(#linearGradient8016);fill-opacity:1;fill-rule:nonzero;stroke:#448705;stroke-width:1;stroke-linecap:round;stroke-linejoin:round;stroke-miterlimit:4;stroke-dashoffset:0;stroke-opacity:1;marker:none;marker-start:none;marker-mid:none;marker-end:none" id="rect2415" d="m 31.5,5.5 v 7 14.8125 C 30.333,26.789102 28.74849,26.500001 27,26.5 c -3.58091,0 -6.5,1.335511 -6.5,3 0,1.66449 2.91909,3.000001 6.5,3 3.58091,0 6.5,-1.335508 6.5,-3 V 13.84375 l 11,7.3125 V 36.3125 C 43.333,35.789102 41.74849,35.500001 40,35.5 c -3.58091,0 -6.5,1.335511 -6.5,3 0,1.66449 2.91909,3.000001 6.5,3 3.58091,0 6.5,-1.335508 6.5,-3 v -16 -5 -2 z"/><ellipse id="path2237" cx="33.786" cy="41.879" rx="5.664" ry="1.847" transform="matrix(0.966787,0,0,1.068809,7.32798,-6.261024)" style="color:#000;display:inline;overflow:visible;visibility:visible;opacity:.7;fill:url(#radialGradient8018);fill-opacity:1;fill-rule:nonzero;stroke:url(#linearGradient8020);stroke-width:.98374951;stroke-linecap:square;stroke-linejoin:miter;stroke-miterlimit:4;stroke-dasharray:none;stroke-dashoffset:0;stroke-opacity:1;marker:none;marker-start:none;marker-mid:none;marker-end:none"/><g style="opacity:.6529851" id="g3361" transform="translate(5,1)"><g id="g3392" transform="translate(9,3)" style="opacity:1;fill-opacity:1;stroke:url(#linearGradient8022)"><path style="display:inline;opacity:1;fill:none;fill-opacity:1;fill-rule:evenodd;stroke:url(#linearGradient8024);stroke-width:1;stroke-linecap:round;stroke-linejoin:round;stroke-miterlimit:4;stroke-dasharray:none;stroke-opacity:.973384" id="path2387" d="M 18.5,25.5 V 4.5"/></g><path style="color:#000;display:inline;overflow:visible;visibility:visible;opacity:1;fill:none;fill-opacity:1;fill-rule:nonzero;stroke:url(#radialGradient8026);stroke-width:1;stroke-linecap:round;stroke-linejoin:miter;stroke-miterlimit:4;stroke-dashoffset:0;stroke-opacity:1;marker:none;marker-start:none;marker-mid:none;marker-end:none" id="path3264" d="m 27.5,6.375 v 5.125 1.25 c 0.02684,-0.356634 0.242082,-0.671789 0.564505,-0.826552 C 28.386928,11.768685 28.767453,11.797873 29.0625,12 l 11,7.3125 c 0.252411,0.170355 0.413456,0.446431 0.4375,0.75 V 16.5 15.0625 Z"/><g id="g3353" transform="translate(22,13)" style="opacity:1;fill-opacity:1;stroke:url(#linearGradient8028)"><path style="display:inline;opacity:1;fill:none;fill-opacity:1;fill-rule:evenodd;stroke:url(#linearGradient8030);stroke-width:1;stroke-linecap:round;stroke-linejoin:round;stroke-miterlimit:4;stroke-dasharray:none;stroke-opacity:.973384" id="path3355" d="M 18.5,25.5 V 2.5"/></g></g><ellipse id="path7999" cx="33.786" cy="41.879" rx="5.664" ry="1.847" transform="matrix(0.966787,0,0,1.068809,-5.67202,-15.261024)" style="color:#000;display:inline;overflow:visible;visibility:visible;opacity:.7;fill:url(#radialGradient8032);fill-opacity:1;fill-rule:nonzero;stroke:url(#linearGradient8034);stroke-width:.98374951;stroke-linecap:square;stroke-linejoin:miter;stroke-miterlimit:4;stroke-dasharray:none;stroke-dashoffset:0;stroke-opacity:1;marker:none;marker-start:none;marker-mid:none;marker-end:none"/></g><path style="color:#000;display:inline;overflow:visible;visibility:visible;opacity:.88805967;fill:none;fill-opacity:1;fill-rule:nonzero;stroke:url(#radialGradient7253);stroke-width:4.29487181;stroke-linecap:round;stroke-linejoin:miter;stroke-miterlimit:4;stroke-dashoffset:0;stroke-opacity:1;marker:none;marker-start:none;marker-mid:none;marker-end:none" id="path7244" d="m 217.9423,-115.70593 -55.83333,-37.3117"/></g></svg>