<svg xmlns="http://www.w3.org/2000/svg" xmlns:svg="http://www.w3.org/2000/svg" xmlns:xlink="http://www.w3.org/1999/xlink" id="svg2" width="256" height="256" version="1.1"><defs id="defs4"><linearGradient id="linearGradient1473"><stop id="stop1475" offset="0" style="stop-color:#c32323;stop-opacity:1"/><stop id="stop1477" offset="1" style="stop-color:#7a1010;stop-opacity:1"/></linearGradient><linearGradient id="linearGradient1467"><stop style="stop-color:#7a2121;stop-opacity:1" id="stop1469" offset="0"/><stop style="stop-color:#461111;stop-opacity:1" id="stop1471" offset="1"/></linearGradient><linearGradient id="linearGradient1457"><stop style="stop-color:#f3afaf;stop-opacity:1" id="stop1459" offset="0"/><stop style="stop-color:#d01c1c;stop-opacity:1" id="stop1461" offset="1"/></linearGradient><linearGradient id="linearGradient4339"><stop id="stop4341" offset="0" style="stop-color:#b6f3b1;stop-opacity:1"/><stop id="stop4343" offset="1" style="stop-color:#27af1e;stop-opacity:1"/></linearGradient><linearGradient id="linearGradient2141"><stop style="stop-color:#2bb135;stop-opacity:1" id="stop2143" offset="0"/><stop style="stop-color:#0d5f11;stop-opacity:1" id="stop2145" offset="1"/></linearGradient><linearGradient id="linearGradient2127"><stop id="stop2129" offset="0" style="stop-color:#1d6921;stop-opacity:1"/><stop id="stop2131" offset="1" style="stop-color:#124917;stop-opacity:1"/></linearGradient><linearGradient id="linearGradient3702"><stop id="stop3704" offset="0" style="stop-color:#ced1f2;stop-opacity:1"/><stop id="stop3706" offset="1" style="stop-color:#1d42c9;stop-opacity:0"/></linearGradient><linearGradient id="linearGradient3630"><stop style="stop-color:#d2d0f3;stop-opacity:1" id="stop3632" offset="0"/><stop style="stop-color:#1c3db8;stop-opacity:1" id="stop3634" offset="1"/></linearGradient><linearGradient id="linearGradient3598"><stop id="stop3600" offset="0" style="stop-color:#8280e2;stop-opacity:1"/><stop id="stop3602" offset="1" style="stop-color:#b6a7ea;stop-opacity:1"/></linearGradient><linearGradient id="linearGradient2856"><stop id="stop2858" offset="0" style="stop-color:#3c44dc;stop-opacity:1"/><stop id="stop2860" offset="1" style="stop-color:#060e30;stop-opacity:1"/></linearGradient><linearGradient id="linearGradient1378"><stop id="stop1380" offset="0" style="stop-color:#b0ffa5;stop-opacity:1"/><stop id="stop1382" offset="1" style="stop-color:#26bc14;stop-opacity:.44705883"/></linearGradient><linearGradient id="linearGradient1365"><stop style="stop-color:#24f00a;stop-opacity:1" id="stop1367" offset="0"/><stop style="stop-color:#0b6400;stop-opacity:1" id="stop1370" offset="1"/></linearGradient><linearGradient id="linearGradient1352"><stop id="stop1354" offset="0" style="stop-color:#179807;stop-opacity:1"/><stop id="stop1356" offset="1" style="stop-color:#0b5102;stop-opacity:1"/></linearGradient><linearGradient id="linearGradient1367"><stop style="stop-color:#f67e36;stop-opacity:1" id="stop1369" offset="0"/><stop style="stop-color:#602604;stop-opacity:1" id="stop1371" offset="1"/></linearGradient><linearGradient id="linearGradient1347"><stop id="stop1349" offset="0" style="stop-color:#f0da27;stop-opacity:1"/><stop id="stop1351" offset="1" style="stop-color:#bf4d09;stop-opacity:1"/></linearGradient><linearGradient id="linearGradient1315"><stop id="stop1317" offset="0" style="stop-color:#97ff82;stop-opacity:1"/><stop id="stop1319" offset="1" style="stop-color:#ceff24;stop-opacity:0"/></linearGradient><linearGradient id="linearGradient2122"><stop id="stop2124" offset="0" style="stop-color:#2edc32;stop-opacity:1"/><stop id="stop2126" offset="1" style="stop-color:#11661d;stop-opacity:1"/></linearGradient><linearGradient id="linearGradient1364"><stop id="stop1366" offset="0" style="stop-color:#236b0d;stop-opacity:1"/><stop id="stop1368" offset="1" style="stop-color:#081b04;stop-opacity:1"/></linearGradient><linearGradient id="linearGradient1341" x1="74.911" x2="84.911" y1="32.362" y2="47.451" gradientUnits="userSpaceOnUse" xlink:href="#linearGradient1364"/><linearGradient id="linearGradient1343" x1="73.839" x2="76.875" y1="34.429" y2="43.714" gradientUnits="userSpaceOnUse" xlink:href="#linearGradient2122"/><linearGradient id="linearGradient1345" x1="72.946" x2="85" y1="35.589" y2="47.375" gradientUnits="userSpaceOnUse" xlink:href="#linearGradient1315"/><radialGradient id="radialGradient1353" cx="21.96" cy="14.922" r="27.5" fx="21.96" fy="14.922" gradientTransform="matrix(1.211118e-16,1.330643,-1.347411,2.027373e-5,44.09678,-13.39507)" gradientUnits="userSpaceOnUse" xlink:href="#linearGradient1347"/><radialGradient id="radialGradient1357" cx="21.96" cy="14.922" r="27.5" fx="21.96" fy="14.922" gradientTransform="matrix(1.211118e-16,1.330643,-1.347411,2.027373e-5,44.09678,-13.39507)" gradientUnits="userSpaceOnUse" xlink:href="#linearGradient1367"/><radialGradient id="radialGradient1375" cx="21.96" cy="14.922" r="27.5" fx="21.96" fy="14.922" gradientTransform="matrix(1.211118e-16,1.330643,-1.347411,2.027373e-5,44.09678,-13.39507)" gradientUnits="userSpaceOnUse" xlink:href="#linearGradient1367"/><radialGradient id="radialGradient1381" cx="21.96" cy="14.922" r="27.5" fx="21.96" fy="14.922" gradientTransform="matrix(1.211118e-16,1.330643,-1.347411,2.027373e-5,44.09678,-13.39507)" gradientUnits="userSpaceOnUse" xlink:href="#linearGradient1367"/><radialGradient id="radialGradient1383" cx="21.96" cy="14.922" r="27.5" fx="21.96" fy="14.922" gradientTransform="matrix(1.211118e-16,1.330643,-1.347411,2.027373e-5,44.09678,-13.39507)" gradientUnits="userSpaceOnUse" xlink:href="#linearGradient1347"/><linearGradient id="linearGradient1358" x1="20.153" x2="40.305" y1="13.746" y2="48.977" gradientUnits="userSpaceOnUse" xlink:href="#linearGradient1352"/><linearGradient id="linearGradient1362" x1="20.153" x2="40.305" y1="13.746" y2="48.977" gradientUnits="userSpaceOnUse" xlink:href="#linearGradient1365"/><linearGradient id="linearGradient1374" x1="20.153" x2="40.305" y1="13.746" y2="48.977" gradientUnits="userSpaceOnUse" xlink:href="#linearGradient1365"/><linearGradient id="linearGradient1384" x1="21.252" x2="42.748" y1="17.588" y2="46.168" gradientUnits="userSpaceOnUse" xlink:href="#linearGradient1378"/><linearGradient id="linearGradient1391" x1="20.153" x2="40.305" y1="13.746" y2="48.977" gradientUnits="userSpaceOnUse" xlink:href="#linearGradient1352"/><linearGradient id="linearGradient1393" x1="20.153" x2="40.305" y1="13.746" y2="48.977" gradientUnits="userSpaceOnUse" xlink:href="#linearGradient1365"/><linearGradient id="linearGradient1395" x1="21.252" x2="42.748" y1="17.588" y2="46.168" gradientUnits="userSpaceOnUse" xlink:href="#linearGradient1378"/><linearGradient id="linearGradient1400" x1="20.153" x2="40.305" y1="13.746" y2="48.977" gradientUnits="userSpaceOnUse" xlink:href="#linearGradient1352"/><linearGradient id="linearGradient1402" x1="20.031" x2="42.748" y1="13.924" y2="46.168" gradientUnits="userSpaceOnUse" xlink:href="#linearGradient1378"/><linearGradient id="linearGradient1409" x1="20.153" x2="40.305" y1="13.746" y2="48.977" gradientUnits="userSpaceOnUse" xlink:href="#linearGradient1352"/><linearGradient id="linearGradient1411" x1="20.153" x2="40.305" y1="13.746" y2="48.977" gradientUnits="userSpaceOnUse" xlink:href="#linearGradient1365"/><linearGradient id="linearGradient1413" x1="20.031" x2="42.748" y1="13.924" y2="46.168" gradientUnits="userSpaceOnUse" xlink:href="#linearGradient1378"/><linearGradient id="linearGradient1418" x1="20.153" x2="40.305" y1="13.746" y2="48.977" gradientUnits="userSpaceOnUse" xlink:href="#linearGradient1352"/><linearGradient id="linearGradient1422" x1="20.153" x2="43.481" y1="18.931" y2="43.603" gradientUnits="userSpaceOnUse" xlink:href="#linearGradient1378"/><linearGradient id="linearGradient1429" x1="20.153" x2="40.305" y1="13.746" y2="48.977" gradientUnits="userSpaceOnUse" xlink:href="#linearGradient1352"/><linearGradient id="linearGradient1431" x1="20.153" x2="40.305" y1="13.746" y2="48.977" gradientUnits="userSpaceOnUse" xlink:href="#linearGradient1365"/><linearGradient id="linearGradient1433" x1="20.153" x2="43.481" y1="18.931" y2="43.603" gradientUnits="userSpaceOnUse" xlink:href="#linearGradient1378"/><linearGradient id="linearGradient1436" x1="18.505" x2="47.844" y1="17.421" y2="46.762" gradientTransform="matrix(0.889325,0.000000,0.000000,0.889325,3.541600,3.541600)" gradientUnits="userSpaceOnUse" xlink:href="#linearGradient1378"/><linearGradient id="linearGradient1439" x1="20.153" x2="40.305" y1="13.746" y2="48.977" gradientTransform="matrix(0.889325,0.000000,0.000000,0.889325,3.541600,3.541600)" gradientUnits="userSpaceOnUse" xlink:href="#linearGradient1365"/><linearGradient id="linearGradient1442" x1="20.153" x2="40.305" y1="13.746" y2="48.977" gradientTransform="matrix(0.889325,0.000000,0.000000,0.889325,3.541600,3.541600)" gradientUnits="userSpaceOnUse" xlink:href="#linearGradient1352"/><linearGradient id="linearGradient1449" x1="20.153" x2="40.305" y1="13.746" y2="48.977" gradientTransform="matrix(0.889325,0.000000,0.000000,0.889325,3.541600,3.541600)" gradientUnits="userSpaceOnUse" xlink:href="#linearGradient1352"/><linearGradient id="linearGradient1451" x1="20.153" x2="40.305" y1="13.746" y2="48.977" gradientTransform="matrix(0.889325,0.000000,0.000000,0.889325,3.541600,3.541600)" gradientUnits="userSpaceOnUse" xlink:href="#linearGradient1365"/><linearGradient id="linearGradient1453" x1="18.505" x2="47.844" y1="17.421" y2="46.762" gradientTransform="matrix(0.889325,0.000000,0.000000,0.889325,3.541600,3.541600)" gradientUnits="userSpaceOnUse" xlink:href="#linearGradient1378"/><linearGradient id="linearGradient1456" x1="18.505" x2="47.844" y1="17.421" y2="46.762" gradientTransform="matrix(0.889325,0.000000,0.000000,0.889325,3.541593,3.541600)" gradientUnits="userSpaceOnUse" xlink:href="#linearGradient1378"/><linearGradient id="linearGradient1459" x1="20.153" x2="40.305" y1="13.746" y2="48.977" gradientTransform="matrix(0.889325,0.000000,0.000000,0.889325,-50.24727,-11.63251)" gradientUnits="userSpaceOnUse" xlink:href="#linearGradient1365"/><linearGradient id="linearGradient1462" x1="20.153" x2="40.305" y1="13.746" y2="48.977" gradientTransform="matrix(0.889325,0.000000,0.000000,0.889325,3.541600,3.541600)" gradientUnits="userSpaceOnUse" xlink:href="#linearGradient1352"/><linearGradient id="linearGradient1466" x1="18.505" x2="47.844" y1="17.421" y2="46.762" gradientTransform="matrix(0.889325,0.000000,0.000000,0.889325,-32.54864,2.451357)" gradientUnits="userSpaceOnUse" xlink:href="#linearGradient1378"/><linearGradient id="linearGradient1470" x1="18.505" x2="47.844" y1="17.421" y2="46.762" gradientTransform="matrix(0.889325,0.000000,0.000000,0.889325,-32.54864,2.451357)" gradientUnits="userSpaceOnUse" xlink:href="#linearGradient1365"/><linearGradient id="linearGradient1474" x1="18.505" x2="47.844" y1="17.421" y2="46.762" gradientTransform="matrix(0.889325,0.000000,0.000000,0.889325,3.541593,3.541600)" gradientUnits="userSpaceOnUse" xlink:href="#linearGradient1378"/><radialGradient id="radialGradient3716" cx="-18.3" cy=".405" r="17.1" fx="-18.3" fy=".405" gradientTransform="matrix(-0.131601,1.116951,-1.057619,-0.124616,33.35703,39.58492)" gradientUnits="userSpaceOnUse" xlink:href="#linearGradient3630"/><linearGradient id="linearGradient3721" x1="1.63" x2="1.753" y1="16.376" y2="48.499" gradientTransform="translate(-18.50000,10.40625)" gradientUnits="userSpaceOnUse" xlink:href="#linearGradient3702"/><linearGradient id="linearGradient2133" x1="11.969" x2="32" y1="12.458" y2="63.254" gradientUnits="userSpaceOnUse" xlink:href="#linearGradient2127"/><radialGradient id="radialGradient2149" cx="35.01" cy="29.847" r="19.497" fx="35.01" fy="29.847" gradientTransform="matrix(0.777550,0.674559,-0.918922,1.059236,33.18208,-27.99470)" gradientUnits="userSpaceOnUse" xlink:href="#linearGradient2141"/><radialGradient id="radialGradient3605" cx="35.01" cy="29.847" r="19.497" fx="35.01" fy="29.847" gradientTransform="matrix(0.777550,0.674559,-0.918922,1.059236,-0.349170,-28.99470)" gradientUnits="userSpaceOnUse" xlink:href="#linearGradient4339"/><linearGradient id="linearGradient4349" x1="17.758" x2="23.255" y1="18.69" y2="59.484" gradientUnits="userSpaceOnUse" xlink:href="#linearGradient4339"/><linearGradient id="linearGradient4353" x1="17.758" x2="23.255" y1="18.69" y2="59.484" gradientUnits="userSpaceOnUse" xlink:href="#linearGradient4339"/><linearGradient id="linearGradient4361" x1="11.969" x2="32" y1="12.458" y2="63.254" gradientUnits="userSpaceOnUse" xlink:href="#linearGradient2127"/><radialGradient id="radialGradient4363" cx="35.01" cy="29.847" r="19.497" fx="35.01" fy="29.847" gradientTransform="matrix(0.777550,0.674559,-0.918922,1.059236,33.18208,-27.99470)" gradientUnits="userSpaceOnUse" xlink:href="#linearGradient2141"/><linearGradient id="linearGradient4365" x1="17.758" x2="23.255" y1="18.69" y2="59.484" gradientUnits="userSpaceOnUse" xlink:href="#linearGradient4339"/><linearGradient id="linearGradient1401" x1="17.758" x2="23.255" y1="18.69" y2="59.484" gradientTransform="translate(6.782772,-6.746201)" gradientUnits="userSpaceOnUse" xlink:href="#linearGradient4339"/><linearGradient id="linearGradient1405" x1="11.969" x2="32" y1="12.458" y2="63.254" gradientTransform="translate(7.434728,-6.626926)" gradientUnits="userSpaceOnUse" xlink:href="#linearGradient2127"/><linearGradient id="linearGradient1407" x1="17.758" x2="23.255" y1="18.69" y2="59.484" gradientTransform="matrix(0.000000,1.000000,-1.000000,0.000000,19.20422,6.782772)" gradientUnits="userSpaceOnUse" xlink:href="#linearGradient4339"/><radialGradient id="radialGradient1414" cx="35.01" cy="29.847" r="19.497" fx="35.01" fy="29.847" gradientTransform="matrix(0.777550,0.674559,-0.918922,1.059236,33.18208,-27.99470)" gradientUnits="userSpaceOnUse" xlink:href="#linearGradient2141"/><linearGradient id="linearGradient1430" x1="11.969" x2="32" y1="12.458" y2="63.254" gradientTransform="matrix(0.000000,1.000000,-1.000000,0.000000,67.72206,7.141675)" gradientUnits="userSpaceOnUse" xlink:href="#linearGradient2127"/><linearGradient id="linearGradient1434" x1="11.969" x2="32" y1="12.458" y2="63.254" gradientTransform="matrix(0.000000,1.000000,-1.000000,0.000000,67.72203,7.141675)" gradientUnits="userSpaceOnUse" xlink:href="#linearGradient2141"/><radialGradient id="radialGradient1440" cx="31.952" cy="28.874" r="19.688" fx="31.952" fy="28.874" gradientTransform="matrix(0.853114,-8.368384e-2,4.112393e-2,0.419240,3.647967,19.84280)" gradientUnits="userSpaceOnUse" xlink:href="#linearGradient4339"/><linearGradient id="linearGradient1447" x1="11.969" x2="32" y1="12.458" y2="63.254" gradientTransform="matrix(0.000000,1.000000,-1.000000,0.000000,67.72206,7.141675)" gradientUnits="userSpaceOnUse" xlink:href="#linearGradient2127"/><linearGradient id="linearGradient1450" x1="11.969" x2="32" y1="12.458" y2="63.254" gradientTransform="matrix(0.000000,1.000000,-1.000000,0.000000,67.72203,7.141675)" gradientUnits="userSpaceOnUse" xlink:href="#linearGradient2141"/><radialGradient id="radialGradient1452" cx="31.952" cy="28.874" r="19.688" fx="31.952" fy="28.874" gradientTransform="matrix(0.853114,-8.368384e-2,4.112393e-2,0.419240,3.647967,19.84280)" gradientUnits="userSpaceOnUse" xlink:href="#linearGradient4339"/><linearGradient id="linearGradient1463" x1="11.969" x2="32" y1="12.458" y2="63.254" gradientTransform="matrix(0.000000,1.000000,-1.000000,0.000000,67.72206,7.141675)" gradientUnits="userSpaceOnUse" xlink:href="#linearGradient2127"/><linearGradient id="linearGradient1465" x1="11.969" x2="32" y1="12.458" y2="63.254" gradientTransform="matrix(0.000000,1.000000,-1.000000,0.000000,67.72203,7.141675)" gradientUnits="userSpaceOnUse" xlink:href="#linearGradient2141"/><radialGradient id="radialGradient1467" cx="31.952" cy="28.874" r="19.688" fx="31.952" fy="28.874" gradientTransform="matrix(0.853114,-8.368384e-2,4.112393e-2,0.419240,3.647967,19.84280)" gradientUnits="userSpaceOnUse" xlink:href="#linearGradient4339"/><linearGradient id="linearGradient1479" x1="11.969" x2="32" y1="12.458" y2="63.254" gradientTransform="matrix(0.000000,1.000000,-1.000000,0.000000,67.72206,7.141675)" gradientUnits="userSpaceOnUse" xlink:href="#linearGradient2127"/><linearGradient id="linearGradient1493" x1="11.969" x2="32" y1="12.458" y2="63.254" gradientTransform="rotate(90,30.290178,37.431853)" gradientUnits="userSpaceOnUse" xlink:href="#linearGradient1473"/><linearGradient id="linearGradient1497" x1="11.969" x2="32" y1="12.458" y2="63.254" gradientTransform="rotate(90,30.290192,37.431868)" gradientUnits="userSpaceOnUse" xlink:href="#linearGradient2127"/><linearGradient id="linearGradient1499" x1="11.969" x2="32" y1="12.458" y2="63.254" gradientTransform="rotate(90,30.290178,37.431853)" gradientUnits="userSpaceOnUse" xlink:href="#linearGradient2141"/><linearGradient id="linearGradient1440" x1="11.969" x2="32" y1="12.458" y2="63.254" gradientTransform="matrix(3.2755913,1.8911617,-1.8911617,3.2755913,82.233962,-61.040446)" gradientUnits="userSpaceOnUse" xlink:href="#linearGradient1467"/><radialGradient id="radialGradient1442" cx="31.952" cy="28.874" r="19.688" fx="31.952" fy="28.874" gradientTransform="matrix(1.355421,0.123016,-0.09533766,1.050426,-8.461414,-4.986228)" gradientUnits="userSpaceOnUse" xlink:href="#linearGradient1457"/><radialGradient id="radialGradient1444" cx="31.952" cy="28.874" r="19.688" fx="31.952" fy="28.874" gradientTransform="matrix(1.035976,-0.276656,0.253698,0.950012,-8.33258,10.68326)" gradientUnits="userSpaceOnUse" xlink:href="#linearGradient4339"/></defs><metadata id="metadata7"/><g id="layer1"><path id="path1388" d="m 5.172542,115.71536 c -0.6416348,1.56559 -0.3356575,3.23416 0.8451945,4.44597 l 60.4997175,60.4518 c 1.646957,1.59538 4.334465,1.63669 5.981413,0.0413 l 60.451793,-60.49975 c 1.18085,-1.21178 1.59995,-2.93095 0.95832,-4.49657 -0.64166,-1.56562 -2.21395,-1.94739 -3.90561,-1.98194 0,0 -20.50694,0.0361 -34.687526,0.0362 -0.837363,-32.454638 23.805026,-79.914731 97.720136,-40.893612 1.6057,0.804395 3.93467,0.44016 4.96204,-1.502632 1.76812,-3.343596 -1.38444,-5.166751 -1.38444,-5.166751 0,4e-6 -37.97664,-21.925795 -40.94489,-23.639522 C 108.17261,15.08799 72.164593,36.343915 59.861226,62.12454 c -9.127824,18.018303 -13.132055,38.08817 -15.696558,51.53601 -14.525989,1e-5 -35.2151766,0.004 -35.2151766,0.004 -1.6916373,0.0345 -3.1353009,0.48475 -3.7769494,2.05037 z" style="opacity:1;fill:url(#linearGradient1440);fill-opacity:1;stroke:none;stroke-width:0;stroke-linecap:round;stroke-linejoin:round;stroke-miterlimit:4;stroke-dasharray:none;stroke-opacity:1"/><path id="path1432" d="m 17.238281,14.751953 -5.589843,20.896485 20.875,5.583984 c -0.372031,-0.641835 -2.507336,-4.323657 -4.236329,-7.31836 a 1.3282818,1.3282818 0 0 1 0.457032,-1.796874 c 3.960891,-2.425141 9.713509,-3.843074 14.808593,-1.556641 4.214365,1.891207 7.530524,6.524868 8.837891,14.408203 0,-3.384487 0,-6.782389 0,-7.3125 -10e-7,-6.956069 -2.268632,-11.524976 -5.328125,-14.355469 -3.059493,-2.830492 -6.99247,-3.931244 -10.396484,-3.664062 a 1.3282818,1.3282818 0 0 1 -0.03125,0.002 C 31.543177,19.917438 26.5325,21.59832 23.125,22.785156 a 1.3282818,1.3282818 0 0 1 -1.587891,-0.589844 c -1.772673,-3.07036 -3.930257,-6.805285 -4.298828,-7.443359 z m 35.804688,35.386719 c -0.0048,0.03209 0.02336,0.0586 0,0 z" transform="matrix(1.8911617,-3.2755914,3.2755914,1.8911617,-69.232598,147.28328)" style="opacity:1;fill:url(#linearGradient1493);fill-opacity:1;stroke:none;stroke-width:0;stroke-linecap:round;stroke-linejoin:round;stroke-miterlimit:4;stroke-dasharray:none;stroke-opacity:1"/><path id="path1436" d="m 17.451172,16.359375 -5.042969,18.849609 18.826172,5.03711 C 30.395521,38.798469 29.172873,36.689098 27.75,34.224609 a 1.9492218,1.9492218 0 0 1 0.669922,-2.636718 c 4.101474,-2.511215 10.037146,-3.994385 15.386719,-1.59375 3.426671,1.537728 6.204002,4.889065 7.96289,9.955078 0,-0.747957 0,-2.126743 0,-2.292969 -10e-7,-6.818663 -2.204235,-11.194629 -5.128906,-13.900391 -2.924671,-2.705761 -6.690362,-3.753948 -9.925781,-3.5 a 1.9492218,1.9492218 0 0 1 -0.04492,0.002 c -4.979095,0.272607 -9.939259,1.928173 -13.341797,3.113282 A 1.9492218,1.9492218 0 0 1 21,22.505859 C 19.536336,19.970719 18.289691,17.81108 17.451172,16.359375 Z M 53.660156,50.09375 c 7.4e-4,0.01897 0.0051,0.03178 0.0059,0.05078 l -0.002,-0.04102 c -2.21e-4,-0.0037 -0.0036,-0.006 -0.0039,-0.0098 z" transform="matrix(1.8911617,-3.2755914,3.2755914,1.8911617,-69.232598,147.28328)" style="opacity:1;fill:url(#radialGradient1442);fill-opacity:1;stroke:none;stroke-width:0;stroke-linecap:round;stroke-linejoin:round;stroke-miterlimit:4;stroke-dasharray:none;stroke-opacity:1"/><g id="g1454" transform="matrix(-1.8911617,3.2755914,-3.2755914,-1.8911617,324.61564,108.10826)"><path style="opacity:1;fill:url(#linearGradient1497);fill-opacity:1;stroke:none;stroke-width:0;stroke-linecap:round;stroke-linejoin:round;stroke-miterlimit:4;stroke-dasharray:none;stroke-opacity:1" id="path1456" d="m 17.063883,12.863197 c -0.443291,0.06005 -0.784891,0.350684 -0.90625,0.78125 l -5.84375,21.84375 c -0.147575,0.587999 0.198242,1.208806 0.78125,1.375 l 21.84375,5.84375 c 0.433559,0.110183 0.882599,-0.02112 1.15625,-0.375 0.273651,-0.353881 0.153214,-0.764354 -0.0625,-1.15625 0,0 -2.719165,-4.690624 -4.59375,-7.9375 7.320329,-4.482027 21.444665,-5.113671 22.28125,16.96875 0.02808,0.473988 0.419354,0.959091 1,0.9375 0.999309,-0.03716 1,-1 1,-1 0,10e-7 0,-11.593825 0,-12.5 0,-14.499999 -9.626926,-19.934728 -17.15625,-19.34375 -5.332227,0.291941 -10.456887,2.028217 -13.875,3.21875 -1.920245,-3.325962 -4.65625,-8.0625 -4.65625,-8.0625 -0.231533,-0.382761 -0.525456,-0.653799 -0.96875,-0.59375 z"/><path style="opacity:1;fill:url(#linearGradient1499);fill-opacity:1;stroke:none;stroke-width:0;stroke-linecap:round;stroke-linejoin:round;stroke-miterlimit:4;stroke-dasharray:none;stroke-opacity:1" id="path1458" d="m 17.238281,14.751953 -5.589843,20.896485 20.875,5.583984 c -0.372031,-0.641835 -2.507336,-4.323657 -4.236329,-7.31836 a 1.3282818,1.3282818 0 0 1 0.457032,-1.796874 c 3.960891,-2.425141 9.713509,-3.843074 14.808593,-1.556641 4.214365,1.891207 7.530524,6.524868 8.837891,14.408203 0,-3.384487 0,-6.782389 0,-7.3125 -10e-7,-6.956069 -2.268632,-11.524976 -5.328125,-14.355469 -3.059493,-2.830492 -6.99247,-3.931244 -10.396484,-3.664062 a 1.3282818,1.3282818 0 0 1 -0.03125,0.002 C 31.543177,19.917438 26.5325,21.59832 23.125,22.785156 a 1.3282818,1.3282818 0 0 1 -1.587891,-0.589844 c -1.772673,-3.07036 -3.930257,-6.805285 -4.298828,-7.443359 z m 35.804688,35.386719 c -0.0051,0.06527 -0.01572,-0.01231 0,0 z"/><path style="opacity:1;fill:url(#radialGradient1444);fill-opacity:1;stroke:none;stroke-width:0;stroke-linecap:round;stroke-linejoin:round;stroke-miterlimit:4;stroke-dasharray:none;stroke-opacity:1" id="path1460" d="m 17.451172,16.359375 -5.042969,18.849609 18.826172,5.03711 C 30.395521,38.798469 29.172873,36.689098 27.75,34.224609 a 1.9492218,1.9492218 0 0 1 0.669922,-2.636718 c 4.101474,-2.511215 10.037146,-3.994385 15.386719,-1.59375 3.426671,1.537728 6.204002,4.889065 7.96289,9.955078 0,-0.747957 0,-2.126743 0,-2.292969 -10e-7,-6.818663 -2.204235,-11.194629 -5.128906,-13.900391 -2.924671,-2.705761 -6.690362,-3.753948 -9.925781,-3.5 a 1.9492218,1.9492218 0 0 1 -0.04492,0.002 c -4.979095,0.272607 -9.939259,1.928173 -13.341797,3.113282 A 1.9492218,1.9492218 0 0 1 21,22.505859 C 19.536336,19.970719 18.289691,17.81108 17.451172,16.359375 Z M 53.660156,50.09375 c 0.006,0.102773 0.01338,0.02173 0,0 z"/></g></g></svg>