<svg xmlns="http://www.w3.org/2000/svg" xmlns:svg="http://www.w3.org/2000/svg" xmlns:xlink="http://www.w3.org/1999/xlink" id="svg115" width="256" height="256" version="1.1"><metadata id="metadata119"/><defs id="defs68"><radialGradient id="m" cx="605.714" cy="486.648" r="117.143" fx="605.714" fy="486.648" gradientTransform="matrix(-2.77439,0,0,1.9697,112.762,-872.885)" gradientUnits="userSpaceOnUse" xlink:href="#a"/><linearGradient id="a"><stop id="stop3" offset="0"/><stop id="stop5" offset="1" stop-opacity="0"/></linearGradient><radialGradient id="l" cx="605.714" cy="486.648" r="117.143" fx="605.714" fy="486.648" gradientTransform="matrix(2.77439,0,0,1.9697,-1891.633,-872.885)" gradientUnits="userSpaceOnUse" xlink:href="#a"/><linearGradient id="b"><stop id="stop9" offset="0" stop-opacity="0"/><stop id="stop11" offset=".5"/><stop id="stop13" offset="1" stop-opacity="0"/></linearGradient><linearGradient id="k" x1="302.857" x2="302.857" y1="366.648" y2="609.505" gradientTransform="matrix(2.77439,0,0,1.9697,-1892.179,-872.885)" gradientUnits="userSpaceOnUse" xlink:href="#b"/><linearGradient id="f"><stop id="stop17" offset="0" stop-color="#fff"/><stop id="stop19" offset="1" stop-color="#fff" stop-opacity="0"/></linearGradient><linearGradient id="d"><stop id="stop22" offset="0" stop-color="#fff"/><stop id="stop24" offset="1" stop-color="#fff" stop-opacity="0"/></linearGradient><linearGradient id="c"><stop id="stop27" offset="0"/><stop id="stop29" offset="1" stop-opacity="0"/></linearGradient><linearGradient id="g"><stop id="stop32" offset="0" stop-color="#aaa"/><stop id="stop34" offset="1" stop-color="#cdcdcd"/></linearGradient><linearGradient id="e"><stop id="stop37" offset="0" stop-color="#ff8a2b"/><stop id="stop39" offset="1" stop-color="#833a00"/></linearGradient><linearGradient id="h"><stop id="stop42" offset="0" stop-color="#fff"/><stop id="stop44" offset="1" stop-color="#fff" stop-opacity="0"/></linearGradient><linearGradient id="i"><stop id="stop47" offset="0" stop-color="#e4e4e4"/><stop id="stop49" offset="1" stop-color="#d3d3d3"/></linearGradient><linearGradient id="j"><stop id="stop52" offset="0" stop-color="#bbb"/><stop id="stop54" offset="1" stop-color="#9f9f9f"/></linearGradient><radialGradient id="p" cx="10.364" cy="32.709" r="3.823" fx="10.364" fy="32.709" gradientTransform="matrix(5.3351283,0,0,3.3306139,-1.247328,70.840495)" gradientUnits="userSpaceOnUse" xlink:href="#c"/><linearGradient id="s" x1="24.237" x2="24.237" y1="31.712" y2="28.359" gradientTransform="matrix(3.3804973,0,0,3.3804973,46.603438,26.025417)" gradientUnits="userSpaceOnUse" xlink:href="#d"/><linearGradient id="w" x1="23.599" x2="26.033" y1="3.493" y2="13.095" gradientUnits="userSpaceOnUse" xlink:href="#e"/><linearGradient id="x" x1="24.395" x2="17.766" y1="11.51" y2="-6.461" gradientUnits="userSpaceOnUse" xlink:href="#e"/><linearGradient id="y" x1="21.058" x2="26.286" y1="2.437" y2="29.562" gradientTransform="matrix(5.3351283,0,0,5.3351283,-2.0742729,3.7405864)" gradientUnits="userSpaceOnUse" xlink:href="#f"/><linearGradient id="u" x1="26.313" x2="23.063" y1="17.5" y2="17.5" gradientTransform="matrix(5.3351283,0,0,5.3351283,-2.0742729,0.40613121)" gradientUnits="userSpaceOnUse" xlink:href="#g"/><linearGradient id="r" x1="28.469" x2="20" y1="28.125" y2="26.375" gradientTransform="matrix(5.3351283,0,0,5.3351283,-2.0742729,0.40613121)" gradientUnits="userSpaceOnUse" xlink:href="#g"/><linearGradient id="q" x1="12.378" x2="44.096" y1="4.433" y2="47.621" gradientTransform="matrix(5.3351283,0,0,5.3351283,-2.0742729,46.715045)" gradientUnits="userSpaceOnUse" xlink:href="#h"/><radialGradient id="o" cx="15.571" cy="2.959" r="20.936" fx="15.571" fy="2.959" gradientTransform="matrix(6.8622554,4.1704698,-3.7921025,6.2396993,-14.633165,20.700959)" gradientUnits="userSpaceOnUse" xlink:href="#i"/><linearGradient id="n" x1="7.605" x2="36.183" y1="28.481" y2="40.944" gradientTransform="matrix(5.3351283,0,0,5.3351283,-2.0742729,46.715045)" gradientUnits="userSpaceOnUse" xlink:href="#j"/><radialGradient id="v" cx="22.694" cy="4.937" r="6.629" fx="22.694" fy="4.937" gradientTransform="matrix(12.31465,0,0,12.31465,-156.13164,-28.598614)" gradientUnits="userSpaceOnUse" xlink:href="#e"/></defs><g id="g76" transform="matrix(5.3351283,0,0,5.3351283,-2.0742729,3.7406131)" style="color:#000"><path style="opacity:.40200004;fill:url(#k);marker:none" id="path70" d="M -1559.252,-150.697 H -219.619 V 327.66 h -1339.633 z" transform="matrix(0.02354,0,0,0.02087,45.314,40.279)"/><path style="opacity:.40200004;fill:url(#l);marker:none" id="path72" d="m -219.61876,-150.68038 c 0,0 0,478.33079 0,478.33079 142.874166,0.90045 345.40022,-107.16966 345.40014,-239.196175 0,-132.026537 -159.436816,-239.134595 -345.40014,-239.134615 z" transform="matrix(0.02354,0,0,0.02087,45.314,40.279)"/><path style="opacity:.40200004;fill:url(#m);marker:none" id="path74" d="m -1559.2523,-150.68038 c 0,0 0,478.33079 0,478.33079 -142.8742,0.90045 -345.4002,-107.16966 -345.4002,-239.196175 0,-132.026537 159.4368,-239.134595 345.4002,-239.134615 z" transform="matrix(0.02354,0,0,0.02087,45.314,40.279)"/></g><path id="path78" d="m 47.466075,121.2099 c -3.334455,0 -5.501846,1.54814 -6.835623,4.50156 -5e-6,0 -23.841357,59.23892 -23.841357,59.23892 0,0 -1.333782,3.58286 -1.333782,9.5032 0,0 0,30.14331 0,30.14331 0,5.77587 3.50937,8.66959 8.836306,8.66959 H 230.0275 c 5.25431,0 8.50286,-3.83159 8.50286,-9.83665 v -30.14331 c 0,0 0.56532,-4.11029 -0.50017,-7.00236 l -25.17514,-59.73908 c -0.98446,-2.73111 -3.39797,-5.27164 -6.00202,-5.33518 z" style="fill:none;stroke:#535353;stroke-width:10.67025661;stroke-linecap:round;stroke-linejoin:round"/><path id="path80" d="m 15.390758,190.74903 4.07925,-3.69309 200.652522,0.33345 18.47238,1.69283 v 34.35039 c 0,6.00506 -3.23852,9.8344 -8.49283,9.8344 H 24.256887 c -5.326937,0 -8.866129,-2.89191 -8.866129,-8.66777 z" style="fill:url(#n);fill-rule:evenodd;stroke-width:5.33512831"/><path style="color:#000;fill:none;stroke:#666;stroke-width:10.67025661;marker:none" id="path82" d="m 128.96982,109.1094 c -14.00287,0 -25.12713,5.61207 -26.00875,12.67093 h -0.33345 c 0,0 -6.835633,27.67598 -6.835633,27.67598 -1.167059,5.83529 11.090373,16.1721 33.177833,16.1721 22.25491,0 35.01178,-10.50353 32.84438,-18.3395 0,0 -6.33546,-25.50858 -6.33546,-25.50858 h -0.33345 C 154.27225,114.71726 142.9786,109.1094 128.96982,109.1094 Z"/><path id="path84" d="m 16.860547,184.97423 c -3.810806,7.81212 -0.0033,12.76616 5.525669,12.76616 0,0 208.069994,0 208.069994,0 5.97026,-0.12698 9.84458,-5.39862 7.62161,-11.43238 L 212.9265,126.49743 c -0.98446,-2.7311 -3.49324,-5.27164 -6.09729,-5.33512 H 47.537528 c -3.334455,0 -5.525667,1.61958 -6.859444,4.57295 0,0 -23.817537,59.23897 -23.817537,59.23897 z" style="fill:url(#o);fill-rule:evenodd;stroke-width:5.33512831"/><path style="color:#000;fill:url(#p);fill-rule:evenodd;stroke-width:5.33512831;marker:none" id="path86" d="m 74.438563,179.77755 a 20.395108,12.732205 0 1 1 -40.790215,0 20.395108,12.732205 0 1 1 40.790215,0 z"/><path id="path88" d="m 236.919,183.44988 c 0.33889,6.6688 -2.20876,12.3553 -7.05366,12.5042 0,0 -203.368242,0 -203.368242,0 -6.878217,0 -9.964611,-1.73365 -11.118678,-4.63116 0.489557,5.03813 4.405842,8.79923 11.118678,8.79923 0,0 203.368242,0 203.368242,0 5.74064,-0.17659 9.35144,-7.59733 7.21397,-15.97759 z" style="fill:#fff;fill-rule:evenodd;stroke-width:5.33512831"/><path id="path90" d="m 49.369782,123.62724 c -3.210104,0 -5.296667,1.49042 -6.580699,4.33367 -6e-6,0 -23.554671,56.50291 -23.554671,56.50291 0,0 -1.284042,3.44921 -1.284042,9.14878 0,0 0,28.22336 0,28.22336 0,7.22766 2.369096,8.67967 8.506777,8.67967 H 227.52162 c 7.05905,0 8.18577,-1.68798 8.18577,-9.80324 v -28.22331 c 0,0 0.54424,-3.95707 -0.48149,-6.74126 l -24.50529,-57.65129 c -0.94775,-2.62926 -2.9378,-4.40815 -5.44474,-4.46929 z" style="fill:none;stroke:url(#q);stroke-width:5.33512831;stroke-linecap:round;stroke-linejoin:round"/><path style="color:#000;fill:#fff;fill-opacity:.47999998;fill-rule:evenodd;stroke-width:8.43643856;marker:none" id="path92" d="m 190.16458,154.63826 a 61.145997,31.31868 0 1 1 -122.291986,0 61.145997,31.31868 0 1 1 122.291986,0 z"/><path style="color:#000;fill:#c9c9c9;fill-rule:evenodd;stroke-width:4.55438566;marker:none" id="path94" d="m 162.03051,148.63192 a 33.00948,16.907294 0 1 1 -66.018955,0 33.00948,16.907294 0 1 1 66.018955,0 z"/><path style="color:#000;fill:none;stroke:#666;stroke-width:10.67025661;marker:none" id="path96" d="m 128.96982,10.909692 c -19.52272,0 -35.345228,15.822497 -35.345228,35.345225 0,13.911667 8.317858,25.569936 20.006728,31.343879 v 45.181864 c 0,0 0,0.18993 0,0.33345 0,4.34263 6.86005,7.83597 15.3385,7.83597 8.47844,0 15.33849,-3.49334 15.33849,-7.83597 v -0.33345 -45.015141 c 11.79299,-5.73633 20.00673,-17.522696 20.00673,-31.510602 0,-19.522728 -15.82251,-35.345225 -35.34522,-35.345225 z"/><path style="color:#000;fill:url(#r);fill-rule:evenodd;stroke-width:5.33512831;marker:none" id="path98" d="m 155.47874,121.78033 c 0,0 6.33546,25.50858 6.33546,25.50858 2.1674,7.83597 -10.58947,18.3395 -32.84438,18.3395 -22.08746,0 -34.344892,-10.33681 -33.177833,-16.1721 0,0 6.835633,-27.67598 6.835633,-27.67598 z"/><path id="t" d="m 155.42778,122.62349 a 26.407661,13.525875 0 1 1 -52.81532,0 26.407661,13.525875 0 1 1 52.81532,0 z" style="color:#000;fill:#e4e4e4;fill-rule:evenodd;stroke-width:3.64351916;marker:none"/><path style="color:#000;fill:none;stroke:url(#s);stroke-width:3.64417624;marker:none" id="path101" d="m 129.63691,109.37583 c -13.52473,0 -24.50861,5.64393 -24.50861,12.57122 0,6.92729 10.98388,12.57122 24.50861,12.57122 13.52472,0 24.5086,-5.64393 24.5086,-12.57122 0,-6.92729 -10.98388,-12.57122 -24.5086,-12.57122 z"/><path style="color:#000;fill:url(#u);fill-rule:evenodd;stroke-width:5.33512831;marker:none" id="path103" d="m 128.96982,37.251888 c -8.47845,0 -15.33849,3.493335 -15.3385,7.83597 0,0.143515 0.31867,0.192064 0.33345,0.333445 h -0.33345 v 74.024907 h 0.33345 c -0.0149,0.14138 -0.33345,0.18993 -0.33345,0.33344 0,4.34264 6.86005,7.83597 15.3385,7.83597 8.47844,0 15.33849,-3.49333 15.33849,-7.83597 0,-0.14351 -0.31867,-0.19206 -0.33344,-0.33344 h 0.33344 V 45.421303 h -0.33344 c 0.0149,-0.141381 0.33344,-0.18993 0.33344,-0.333445 0,-4.342635 -6.86005,-7.83597 -15.33849,-7.83597 z"/><path style="color:#000;fill:url(#v);fill-rule:evenodd;stroke-width:5.16216373;marker:none" id="path105" d="m 163.24269,46.211596 a 34.220636,34.220636 0 1 1 -68.44127,0 34.220636,34.220636 0 1 1 68.44127,0 z"/><g id="g111" transform="matrix(5.3351283,0,0,5.3351283,-2.0742729,3.7406131)" style="color:#000;fill-rule:evenodd"><path style="fill:url(#w);marker:none" id="path107" d="m 31.02431,8.4020205 a 6.6291265,6.6291265 0 1 1 -13.258253,0 6.6291265,6.6291265 0 1 1 13.258253,0 z" transform="matrix(0.51033,0,0,0.30142,-2.067,30.219)"/><path style="fill:url(#x);marker:none" id="path109" d="m 31.02431,8.4020205 a 6.6291265,6.6291265 0 1 1 -13.258253,0 6.6291265,6.6291265 0 1 1 13.258253,0 z" transform="matrix(0.4302,0,0,0.25409,-0.112,30.377)"/></g><path style="color:#000;opacity:.52600002;fill:none;stroke:url(#y);stroke-width:5.33512831;marker:none" id="path113" d="m 128.97581,14.794359 c -17.52524,0 -31.70931,14.338744 -31.70931,31.864 0,12.338925 8.85645,22.743332 19.14601,27.996993 v 37.996568 c -4.62681,2.10951 -11.48722,5.56561 -11.56671,8.97145 0,0 -6.651223,27.45051 -6.651223,27.45051 -1.082753,5.41383 10.289263,15.00393 30.781233,15.00393 20.64733,0 32.4827,-9.74482 30.47187,-17.01474 l -6.49654,-25.90375 c -0.0851,-3.64806 -6.5392,-5.93208 -11.74549,-8.04335 V 74.655352 c 10.28957,-5.253661 19.63414,-15.658068 19.63414,-27.996993 0,-17.525256 -14.33876,-31.864 -31.86398,-31.864 z"/></svg>