<svg xmlns="http://www.w3.org/2000/svg" xmlns:svg="http://www.w3.org/2000/svg" xmlns:xlink="http://www.w3.org/1999/xlink" id="svg2" width="256" height="256" version="1.0" viewBox="0 0 512 512" xml:space="preserve"><metadata id="metadata183"/><defs id="defs271"><linearGradient id="linearGradient2661" x1="46.16" x2="206.203" y1="71.923" y2="71.923" gradientUnits="userSpaceOnUse" xlink:href="#XMLID_17_"/><linearGradient id="linearGradient2663" x1="49.416" x2="202.965" y1="71.936" y2="71.936" gradientUnits="userSpaceOnUse" xlink:href="#XMLID_18_"/><linearGradient id="linearGradient2665" x1="49.416" x2="202.965" y1="32.341" y2="32.341" gradientUnits="userSpaceOnUse" xlink:href="#XMLID_19_"/><linearGradient id="linearGradient2667" x1="49.416" x2="202.965" y1="111.529" y2="111.529" gradientUnits="userSpaceOnUse" xlink:href="#XMLID_20_"/><linearGradient id="linearGradient2669" x1="89.16" x2="269.194" y1="141.96" y2="141.96" gradientUnits="userSpaceOnUse" xlink:href="#XMLID_21_"/><linearGradient id="linearGradient2671" x1="87.397" x2="240.947" y1="141.973" y2="141.973" gradientUnits="userSpaceOnUse" xlink:href="#XMLID_22_"/><linearGradient id="linearGradient2673" x1="87.397" x2="138.531" y1="148.426" y2="148.426" gradientUnits="userSpaceOnUse" xlink:href="#XMLID_23_"/><linearGradient id="linearGradient2675" x1="189.814" x2="240.947" y1="135.519" y2="135.519" gradientUnits="userSpaceOnUse" xlink:href="#XMLID_24_"/><linearGradient id="linearGradient2677" x1="127.634" x2="10.458" y1="233.912" y2="116.736" gradientUnits="userSpaceOnUse" xlink:href="#XMLID_25_"/><linearGradient id="linearGradient2679" x1="69.046" x2="69.046" y1="238.279" y2="112.37" gradientUnits="userSpaceOnUse" xlink:href="#XMLID_26_"/><linearGradient id="linearGradient2681" x1="69.046" x2="69.046" y1="210.15" y2="112.37" gradientUnits="userSpaceOnUse" xlink:href="#XMLID_27_"/><linearGradient id="linearGradient2683" x1="69.046" x2="69.046" y1="210.15" y2="112.37" gradientUnits="userSpaceOnUse" xlink:href="#XMLID_28_"/><linearGradient id="linearGradient2685" x1="22.611" x2="22.611" y1="209.471" y2="234.475" gradientUnits="userSpaceOnUse" xlink:href="#XMLID_29_"/><linearGradient id="linearGradient2687" x1="608.854" x2="608.854" y1="209.471" y2="234.475" gradientTransform="matrix(-1,0,0,1,724.334,0)" gradientUnits="userSpaceOnUse" xlink:href="#XMLID_30_"/><linearGradient id="linearGradient2689" x1="69.045" x2="69.045" y1="241.924" y2="209.523" gradientUnits="userSpaceOnUse" xlink:href="#XMLID_31_"/><linearGradient id="linearGradient2691" x1="28.782" x2="62.393" y1="138.011" y2="138.011" gradientUnits="userSpaceOnUse" xlink:href="#XMLID_32_"/><linearGradient id="linearGradient2831" x1="127.634" x2="10.458" y1="233.912" y2="116.736" gradientUnits="userSpaceOnUse" xlink:href="#XMLID_25_"/><linearGradient id="linearGradient2833" x1="69.046" x2="69.046" y1="238.279" y2="112.37" gradientUnits="userSpaceOnUse" xlink:href="#XMLID_26_"/><linearGradient id="linearGradient2835" x1="69.046" x2="69.046" y1="210.15" y2="112.37" gradientUnits="userSpaceOnUse" xlink:href="#XMLID_27_"/><linearGradient id="linearGradient2837" x1="69.046" x2="69.046" y1="210.15" y2="112.37" gradientUnits="userSpaceOnUse" xlink:href="#XMLID_28_"/><linearGradient id="linearGradient2839" x1="22.611" x2="22.611" y1="209.471" y2="234.475" gradientUnits="userSpaceOnUse" xlink:href="#XMLID_29_"/><linearGradient id="linearGradient2841" x1="608.854" x2="608.854" y1="209.471" y2="234.475" gradientTransform="matrix(-1,0,0,1,724.334,0)" gradientUnits="userSpaceOnUse" xlink:href="#XMLID_30_"/><linearGradient id="linearGradient2843" x1="69.045" x2="69.045" y1="241.924" y2="209.523" gradientUnits="userSpaceOnUse" xlink:href="#XMLID_31_"/><linearGradient id="linearGradient2845" x1="28.782" x2="62.393" y1="138.011" y2="138.011" gradientUnits="userSpaceOnUse" xlink:href="#XMLID_32_"/><linearGradient id="XMLID_25_" x1="127.634" x2="10.458" y1="233.912" y2="116.736" gradientUnits="userSpaceOnUse"><stop id="stop174" offset="0" style="stop-color:#585868;stop-opacity:1"/><stop id="stop176" offset="1" style="stop-color:#336;stop-opacity:1"/></linearGradient><linearGradient id="XMLID_26_" x1="69.046" x2="69.046" y1="238.279" y2="112.37" gradientUnits="userSpaceOnUse"><stop id="stop181" offset="0" style="stop-color:#669;stop-opacity:1"/><stop id="stop183" offset=".326" style="stop-color:#bdbdcf;stop-opacity:1"/><stop id="stop185" offset="1" style="stop-color:#fff;stop-opacity:1"/></linearGradient><linearGradient id="XMLID_27_" x1="69.046" x2="69.046" y1="210.15" y2="112.37" gradientUnits="userSpaceOnUse"><stop id="stop190" offset="0" style="stop-color:#fff;stop-opacity:1"/><stop id="stop192" offset=".163" style="stop-color:#e9e9ef;stop-opacity:1"/><stop id="stop194" offset=".73" style="stop-color:#cecedb;stop-opacity:1"/><stop id="stop196" offset="1" style="stop-color:#b1b1c5;stop-opacity:1"/></linearGradient><linearGradient id="XMLID_28_" x1="69.046" x2="69.046" y1="210.15" y2="112.37" gradientUnits="userSpaceOnUse"><stop id="stop201" offset="0" style="stop-color:#fff;stop-opacity:1"/><stop id="stop203" offset=".16" style="stop-color:#fafafb;stop-opacity:1"/><stop id="stop205" offset=".339" style="stop-color:#ededf1;stop-opacity:1"/><stop id="stop207" offset=".528" style="stop-color:#d6d6df;stop-opacity:1"/><stop id="stop209" offset=".723" style="stop-color:#b7b7c7;stop-opacity:1"/><stop id="stop211" offset=".921" style="stop-color:#8f8fa7;stop-opacity:1"/><stop id="stop213" offset="1" style="stop-color:#7d7d99;stop-opacity:1"/></linearGradient><linearGradient id="XMLID_29_" x1="22.611" x2="22.611" y1="209.471" y2="234.475" gradientUnits="userSpaceOnUse"><stop id="stop218" offset="0" style="stop-color:#fff;stop-opacity:1"/><stop id="stop220" offset=".184" style="stop-color:#fafafb;stop-opacity:1"/><stop id="stop222" offset=".389" style="stop-color:#ededf1;stop-opacity:1"/><stop id="stop224" offset=".606" style="stop-color:#d6d6e0;stop-opacity:1"/><stop id="stop226" offset=".828" style="stop-color:#b7b7c8;stop-opacity:1"/><stop id="stop228" offset="1" style="stop-color:#9a9ab1;stop-opacity:1"/></linearGradient><linearGradient id="XMLID_30_" x1="608.854" x2="608.854" y1="209.471" y2="234.475" gradientTransform="matrix(-1,0,0,1,724.334,0)" gradientUnits="userSpaceOnUse"><stop id="stop233" offset="0" style="stop-color:#fff;stop-opacity:1"/><stop id="stop235" offset=".184" style="stop-color:#fafafb;stop-opacity:1"/><stop id="stop237" offset=".389" style="stop-color:#ededf1;stop-opacity:1"/><stop id="stop239" offset=".606" style="stop-color:#d6d6e0;stop-opacity:1"/><stop id="stop241" offset=".828" style="stop-color:#b7b7c8;stop-opacity:1"/><stop id="stop243" offset="1" style="stop-color:#9a9ab1;stop-opacity:1"/></linearGradient><linearGradient id="XMLID_31_" x1="69.045" x2="69.045" y1="241.924" y2="209.523" gradientUnits="userSpaceOnUse"><stop id="stop248" offset="0" style="stop-color:#b1b1c5;stop-opacity:1"/><stop id="stop250" offset=".165" style="stop-color:#a3a3ba;stop-opacity:1"/><stop id="stop252" offset=".476" style="stop-color:#7e7e9e;stop-opacity:1"/><stop id="stop254" offset=".899" style="stop-color:#424272;stop-opacity:1"/><stop id="stop256" offset="1" style="stop-color:#336;stop-opacity:1"/></linearGradient><linearGradient id="linearGradient2893" x1="69.045" x2="69.045" y1="241.924" y2="209.523" gradientUnits="userSpaceOnUse" xlink:href="#XMLID_31_"/><linearGradient id="linearGradient2896" x1="608.854" x2="608.854" y1="209.471" y2="234.475" gradientTransform="matrix(-1,0,0,1,724.334,0)" gradientUnits="userSpaceOnUse" xlink:href="#XMLID_30_"/><linearGradient id="linearGradient2899" x1="22.611" x2="22.611" y1="209.471" y2="234.475" gradientUnits="userSpaceOnUse" xlink:href="#XMLID_29_"/><linearGradient id="linearGradient2902" x1="69.046" x2="69.046" y1="210.15" y2="112.37" gradientUnits="userSpaceOnUse" xlink:href="#XMLID_28_"/><linearGradient id="linearGradient2905" x1="69.046" x2="69.046" y1="210.15" y2="112.37" gradientUnits="userSpaceOnUse" xlink:href="#XMLID_27_"/><linearGradient id="linearGradient2908" x1="69.046" x2="69.046" y1="238.279" y2="112.37" gradientUnits="userSpaceOnUse" xlink:href="#XMLID_26_"/><linearGradient id="linearGradient2911" x1="127.634" x2="10.458" y1="233.912" y2="116.736" gradientUnits="userSpaceOnUse" xlink:href="#XMLID_25_"/><linearGradient id="linearGradient2913" x1="46.16" x2="206.203" y1="71.923" y2="71.923" gradientUnits="userSpaceOnUse" xlink:href="#XMLID_17_"/><linearGradient id="linearGradient2915" x1="49.416" x2="202.965" y1="71.936" y2="71.936" gradientUnits="userSpaceOnUse" xlink:href="#XMLID_18_"/><linearGradient id="linearGradient2917" x1="49.416" x2="202.965" y1="32.341" y2="32.341" gradientUnits="userSpaceOnUse" xlink:href="#XMLID_19_"/><linearGradient id="linearGradient2919" x1="49.416" x2="202.965" y1="111.529" y2="111.529" gradientUnits="userSpaceOnUse" xlink:href="#XMLID_20_"/><linearGradient id="linearGradient2921" x1="89.16" x2="269.194" y1="141.96" y2="141.96" gradientUnits="userSpaceOnUse" xlink:href="#XMLID_21_"/><linearGradient id="linearGradient2923" x1="87.397" x2="240.947" y1="141.973" y2="141.973" gradientUnits="userSpaceOnUse" xlink:href="#XMLID_22_"/><linearGradient id="linearGradient2925" x1="87.397" x2="138.531" y1="148.426" y2="148.426" gradientUnits="userSpaceOnUse" xlink:href="#XMLID_23_"/><linearGradient id="linearGradient2927" x1="189.814" x2="240.947" y1="135.519" y2="135.519" gradientUnits="userSpaceOnUse" xlink:href="#XMLID_24_"/><linearGradient id="linearGradient3013" x1="89.16" x2="269.194" y1="141.96" y2="141.96" gradientUnits="userSpaceOnUse" xlink:href="#XMLID_21_"/><linearGradient id="linearGradient3015" x1="87.397" x2="240.947" y1="141.973" y2="141.973" gradientUnits="userSpaceOnUse" xlink:href="#XMLID_22_"/><linearGradient id="linearGradient3017" x1="87.397" x2="138.531" y1="148.426" y2="148.426" gradientUnits="userSpaceOnUse" xlink:href="#XMLID_23_"/><linearGradient id="linearGradient3019" x1="189.814" x2="240.947" y1="135.519" y2="135.519" gradientUnits="userSpaceOnUse" xlink:href="#XMLID_24_"/><linearGradient id="linearGradient3107" x1="46.16" x2="206.203" y1="71.923" y2="71.923" gradientUnits="userSpaceOnUse" xlink:href="#XMLID_17_"/><linearGradient id="linearGradient3109" x1="49.416" x2="202.965" y1="71.936" y2="71.936" gradientUnits="userSpaceOnUse" xlink:href="#XMLID_18_"/><linearGradient id="linearGradient3111" x1="49.416" x2="202.965" y1="32.341" y2="32.341" gradientUnits="userSpaceOnUse" xlink:href="#XMLID_19_"/><linearGradient id="linearGradient3113" x1="49.416" x2="202.965" y1="111.529" y2="111.529" gradientUnits="userSpaceOnUse" xlink:href="#XMLID_20_"/><linearGradient id="linearGradient3115" x1="89.16" x2="269.194" y1="141.96" y2="141.96" gradientUnits="userSpaceOnUse" xlink:href="#XMLID_21_"/><linearGradient id="linearGradient3117" x1="87.397" x2="240.947" y1="141.973" y2="141.973" gradientUnits="userSpaceOnUse" xlink:href="#XMLID_22_"/><linearGradient id="linearGradient3119" x1="87.397" x2="138.531" y1="148.426" y2="148.426" gradientUnits="userSpaceOnUse" xlink:href="#XMLID_23_"/><linearGradient id="linearGradient3121" x1="189.814" x2="240.947" y1="135.519" y2="135.519" gradientUnits="userSpaceOnUse" xlink:href="#XMLID_24_"/></defs><g id="g3021" transform="matrix(2.2655032,0,0,2.2655032,-72.906704,13.69794)"><g id="g11"><g id="g13"><path id="path15" d="M 202.96484,11 C 151.24023,-16.366211 99.515137,45.04834 47.790527,15.805176 c -1.794921,-1.012696 -3.25,-0.505371 -3.25,1.291504 0,36.559082 0,73.118652 0,109.67773 0,1.79297 1.455079,4.19629 3.25,5.20801 52.265623,29.54981 104.531743,-33.465818 156.797363,-3.9165 1.79492,1.0122 3.25,0.50537 3.25,-1.29151 0,-36.559078 0,-73.118648 0,-109.67773 0,-1.792969 -1.45508,-4.195801 -3.25,-5.208496 C 204.04688,11.58252 203.50586,11.286621 202.96484,11 Z" style="fill:#633"/><linearGradient id="XMLID_17_" x1="46.16" x2="206.203" y1="71.923" y2="71.923" gradientUnits="userSpaceOnUse"><stop id="stop18" offset="0" style="stop-color:#cf0000;stop-opacity:1"/><stop id="stop20" offset=".157" style="stop-color:#7c0000;stop-opacity:1"/><stop id="stop22" offset=".315" style="stop-color:#cf0000;stop-opacity:1"/><stop id="stop24" offset=".65" style="stop-color:#b80000;stop-opacity:1"/><stop id="stop26" offset=".837" style="stop-color:#cf0000;stop-opacity:1"/><stop id="stop28" offset="1" style="stop-color:red;stop-opacity:1"/></linearGradient><path id="path30" d="m 202.96484,14.25 c 0,1.182617 -9.49902,-6.5097656 -23.79882,-7.0512695 -14.29883,-1.5 -33.39649,4.1499025 -52.59473,9.8403315 -19.19824,5.676758 -38.495118,11.41211 -53.191895,9.925293 -14.696778,-0.543945 -24.792969,-8.30957 -25.588868,-7.909179 0,3.110351 0,106.566404 0,109.677734 0.787598,-0.51172 10.784668,7.32373 25.386231,7.90674 14.601074,1.53027 33.807132,-4.19043 53.012692,-9.89209 19.20606,-5.6958 38.41211,-11.39014 53.0127,-9.84717 14.60156,0.59473 24.59863,8.42676 25.38574,7.91553 0,-3.11133 0,-106.567385 0,-109.677736 C 203.77539,14.677246 202.96484,14.25 202.96484,14.25 Z" style="fill:url(#linearGradient3107)"/><linearGradient id="XMLID_18_" x1="49.416" x2="202.965" y1="71.936" y2="71.936" gradientUnits="userSpaceOnUse"><stop id="stop33" offset="0" style="stop-color:#ff6;stop-opacity:1"/><stop id="stop35" offset=".157" style="stop-color:#ffbc50;stop-opacity:1"/><stop id="stop37" offset=".315" style="stop-color:#ffc957;stop-opacity:1"/><stop id="stop39" offset=".65" style="stop-color:#ffffde;stop-opacity:1"/><stop id="stop41" offset=".837" style="stop-color:#ffc957;stop-opacity:1"/><stop id="stop43" offset="1" style="stop-color:#ff6;stop-opacity:1"/></linearGradient><path id="path45" d="m 202.96484,122.30273 c -51.18359,-27.079585 -102.36621,32.77149 -153.549313,5.69434 0,-35.476074 0,-70.952148 0,-106.427734 C 100.59863,48.646973 151.78223,-11.20459 202.96484,15.875 c 0,35.476074 0,70.952148 0,106.42773 z" style="fill:url(#linearGradient3109)"/><linearGradient id="XMLID_19_" x1="49.416" x2="202.965" y1="32.341" y2="32.341" gradientUnits="userSpaceOnUse"><stop id="stop48" offset="0" style="stop-color:#f66;stop-opacity:1"/><stop id="stop50" offset=".157" style="stop-color:#cf0000;stop-opacity:1"/><stop id="stop52" offset=".315" style="stop-color:red;stop-opacity:1"/><stop id="stop54" offset=".65" style="stop-color:#f99;stop-opacity:1"/><stop id="stop56" offset=".837" style="stop-color:#f66;stop-opacity:1"/><stop id="stop58" offset="1" style="stop-color:#f99;stop-opacity:1"/></linearGradient><path id="path60" d="M 49.415527,48.807617 C 100.59863,75.885254 151.78223,16.033691 202.96484,43.113281 c 0,-9.079101 0,-18.158691 0,-27.238281 -51.18359,-27.07959 -102.36621,32.771973 -153.549313,5.694336 0,9.079102 0,18.158691 0,27.238281 z" style="fill:url(#linearGradient3111)"/><linearGradient id="XMLID_20_" x1="49.416" x2="202.965" y1="111.529" y2="111.529" gradientUnits="userSpaceOnUse"><stop id="stop63" offset="0" style="stop-color:#f66;stop-opacity:1"/><stop id="stop65" offset=".157" style="stop-color:#cf0000;stop-opacity:1"/><stop id="stop67" offset=".315" style="stop-color:red;stop-opacity:1"/><stop id="stop69" offset=".65" style="stop-color:#f99;stop-opacity:1"/><stop id="stop71" offset=".837" style="stop-color:#f66;stop-opacity:1"/><stop id="stop73" offset="1" style="stop-color:#f99;stop-opacity:1"/></linearGradient><path id="path75" d="m 49.415527,100.75684 c 0,9.08007 0,18.16015 0,27.24023 51.183103,27.07715 102.366703,-32.773926 153.549313,-5.69434 0,-9.08007 0,-18.16015 0,-27.24023 -51.18359,-27.07959 -102.36621,32.77197 -153.549313,5.69434 z" style="fill:url(#linearGradient3113)"/></g></g><g id="g77" transform="rotate(180,164.17163,141.97162)"><g id="g79"><path id="path81" d="M 240.94727,81.037598 C 189.22266,53.671387 137.49805,115.08496 85.772949,85.842285 c -1.794922,-1.012695 -3.25,-0.505371 -3.25,1.291504 0,36.559081 0,73.118161 0,109.677731 0,1.79297 1.455078,4.19434 3.25,5.20606 52.266111,29.54883 104.531741,-33.46485 156.797361,-3.91602 1.79492,1.01172 3.25,0.50684 3.25,-1.29004 0,-36.55957 0,-73.11865 0,-109.677731 0,-1.792969 -1.45508,-4.196289 -3.25,-5.208496 -0.54101,-0.305664 -1.08203,-0.601563 -1.62304,-0.887695 z" style="fill:#616161"/><linearGradient id="XMLID_21_" x1="89.16" x2="269.194" y1="141.96" y2="141.96" gradientUnits="userSpaceOnUse"><stop id="stop84" offset="0" style="stop-color:#7c0000;stop-opacity:1"/><stop id="stop86" offset=".042" style="stop-color:#820000;stop-opacity:1"/><stop id="stop88" offset=".1" style="stop-color:#940000;stop-opacity:1"/><stop id="stop90" offset=".167" style="stop-color:#b00000;stop-opacity:1"/><stop id="stop92" offset=".225" style="stop-color:#cf0000;stop-opacity:1"/><stop id="stop94" offset=".227" style="stop-color:#d10909;stop-opacity:1"/><stop id="stop96" offset=".238" style="stop-color:#d93737;stop-opacity:1"/><stop id="stop98" offset=".25" style="stop-color:#e16262;stop-opacity:1"/><stop id="stop100" offset=".264" style="stop-color:#e98888;stop-opacity:1"/><stop id="stop102" offset=".278" style="stop-color:#efa8a8;stop-opacity:1"/><stop id="stop104" offset=".295" style="stop-color:#f4c4c4;stop-opacity:1"/><stop id="stop106" offset=".313" style="stop-color:#f8dada;stop-opacity:1"/><stop id="stop108" offset=".334" style="stop-color:#fbebeb;stop-opacity:1"/><stop id="stop110" offset=".36" style="stop-color:#fdf6f6;stop-opacity:1"/><stop id="stop112" offset=".397" style="stop-color:#fffdfd;stop-opacity:1"/><stop id="stop114" offset=".5" style="stop-color:#fff;stop-opacity:1"/><stop id="stop116" offset=".512" style="stop-color:#fbfefc;stop-opacity:1"/><stop id="stop118" offset=".523" style="stop-color:#f1f9f3;stop-opacity:1"/><stop id="stop120" offset=".533" style="stop-color:#def2e5;stop-opacity:1"/><stop id="stop122" offset=".543" style="stop-color:#c5e8d0;stop-opacity:1"/><stop id="stop124" offset=".553" style="stop-color:#a3dab6;stop-opacity:1"/><stop id="stop126" offset=".563" style="stop-color:#7bca95;stop-opacity:1"/><stop id="stop128" offset=".572" style="stop-color:#4ab76f;stop-opacity:1"/><stop id="stop130" offset=".581" style="stop-color:#14a143;stop-opacity:1"/><stop id="stop132" offset=".584" style="stop-color:#093;stop-opacity:1"/><stop id="stop134" offset="1" style="stop-color:#006a00;stop-opacity:1"/></linearGradient><path id="path136" d="m 240.94727,84.287598 c 0,1.182129 -9.49903,-6.509766 -23.79883,-7.051758 -14.29883,-1.5 -33.39649,4.149902 -52.59473,9.840332 -19.19824,5.676758 -38.49512,11.411621 -53.19189,9.925293 -14.696781,-0.544434 -24.792972,-8.310059 -25.588871,-7.90918 0,3.110352 0,106.565915 0,109.677245 0.787598,-0.51074 10.78418,7.32324 25.385741,7.90723 14.60108,1.53027 33.80713,-4.19043 53.01319,-9.8916 19.20605,-5.69629 38.41113,-11.39063 53.01269,-9.84766 14.60156,0.59473 24.59766,8.42676 25.38574,7.91602 0,-3.11133 0,-106.567875 0,-109.678227 -0.8125,-0.460938 -1.62304,-0.888184 -1.62304,-0.887695 z" style="fill:url(#linearGradient3115)"/><linearGradient id="XMLID_22_" x1="87.397" x2="240.947" y1="141.973" y2="141.973" gradientUnits="userSpaceOnUse"><stop id="stop139" offset="0" style="stop-color:#e9e9ef;stop-opacity:1"/><stop id="stop141" offset=".157" style="stop-color:#b1b1c5;stop-opacity:1"/><stop id="stop143" offset=".315" style="stop-color:#cecedb;stop-opacity:1"/><stop id="stop145" offset=".65" style="stop-color:#fff;stop-opacity:1"/><stop id="stop147" offset=".837" style="stop-color:#cecedb;stop-opacity:1"/><stop id="stop149" offset="1" style="stop-color:#ff6;stop-opacity:1"/></linearGradient><path id="path151" d="m 240.94727,192.33984 c -51.1836,-27.0791 -102.36719,32.77246 -153.550297,5.69336 0,-35.47558 0,-70.95166 0,-106.427731 51.183107,27.078611 102.366697,-32.772461 153.550297,-5.692871 0,35.475582 0,70.951662 0,106.427242 z" style="fill:url(#linearGradient3117)"/><linearGradient id="XMLID_23_" x1="87.397" x2="138.531" y1="148.426" y2="148.426" gradientUnits="userSpaceOnUse"><stop id="stop154" offset="0" style="stop-color:#f66;stop-opacity:1"/><stop id="stop156" offset=".466" style="stop-color:#cf0000;stop-opacity:1"/><stop id="stop158" offset="1" style="stop-color:red;stop-opacity:1"/></linearGradient><path id="path160" d="m 138.53125,96.158203 c -17.04492,3.842287 -34.08936,4.464847 -51.134277,-4.552734 0,35.476071 0,70.952151 0,106.427731 17.044917,9.01758 34.089357,8.39453 51.134277,4.55274 0,-35.47656 0,-70.95215 0,-106.427737 z" style="fill:url(#linearGradient3119)"/><linearGradient id="XMLID_24_" x1="189.814" x2="240.947" y1="135.519" y2="135.519" gradientUnits="userSpaceOnUse"><stop id="stop163" offset="0" style="stop-color:#6fcf00;stop-opacity:1"/><stop id="stop165" offset=".556" style="stop-color:#2ca900;stop-opacity:1"/><stop id="stop167" offset="1" style="stop-color:#3c3;stop-opacity:1"/></linearGradient><path id="path169" d="m 189.81445,187.78711 c 17.04395,-3.84277 34.08887,-4.46484 51.13282,4.55273 0,-35.47558 0,-70.95166 0,-106.427242 -17.04395,-9.018067 -34.08887,-8.395508 -51.13282,-4.553711 0,35.476073 0,70.951663 0,106.428223 z" style="fill:url(#linearGradient3121)"/></g></g></g><polyline style="fill:none" id="_x3C_Slice_x3E_" points="0 256 0 0 256 0 256 256" transform="scale(2)"/></svg>