<svg xmlns="http://www.w3.org/2000/svg" xmlns:svg="http://www.w3.org/2000/svg" id="svg2" width="672" height="504" version="1.0"><g id="layer1"><rect style="fill:#131313;fill-opacity:1;fill-rule:nonzero" id="rect2762" width="672" height="504" x="0" y="0"/><rect style="fill:silver;fill-opacity:1;fill-rule:nonzero" id="rect2768" width="96" height="336" x="0" y="0"/><rect style="fill:#c0c000;fill-opacity:1;fill-rule:nonzero" id="rect2770" width="96" height="336" x="96" y="0" transform="translate(-6.4e-5,0)"/><rect style="fill:#00c0c0;fill-opacity:1;fill-rule:nonzero" id="rect2772" width="128" height="336" x="192" y="0" transform="matrix(0.75,0,0,1,48,0)"/><rect style="fill:#00c000;fill-opacity:1;fill-rule:nonzero" id="rect2774" width="128" height="336" x="288" y="0" transform="matrix(0.75,0,0,1,72,0)"/><rect style="fill:#c000c0;fill-opacity:1;fill-rule:nonzero" id="rect2776" width="128" height="336" x="384" y="0" transform="matrix(0.75,0,0,1,96,0)"/><rect style="fill:#c00000;fill-opacity:1;fill-rule:nonzero" id="rect2778" width="128" height="336" x="480" y="0" transform="matrix(0.75,0,0,1,120,0)"/><rect style="fill:#0000c0;fill-opacity:1;fill-rule:nonzero" id="rect2780" width="128" height="336" x="576" y="0" transform="matrix(0.75,0,0,1,144,0)"/><rect style="fill:#0000c0;fill-opacity:1;fill-rule:nonzero" id="rect2782" width="96" height="42" x="0" y="336"/><rect style="fill:#c000c0;fill-opacity:1;fill-rule:nonzero" id="rect2784" width="96" height="42" x="192" y="336"/><rect style="fill:#00c0c0;fill-opacity:1;fill-rule:nonzero" id="rect2786" width="96" height="42" x="384" y="336"/><rect style="fill:silver;fill-opacity:1;fill-rule:nonzero" id="rect2788" width="96" height="42" x="576" y="336"/><rect style="fill:#00214c;fill-opacity:1;fill-rule:nonzero" id="rect2790" width="128" height="126" x="0" y="378" transform="scale(0.9375,1)"/><rect style="fill:#fff;fill-opacity:1;fill-rule:nonzero" id="rect2796" width="128" height="126" x="0" y="378" transform="matrix(0.9375,0,0,1,120,0)"/><rect style="fill:#32006a;fill-opacity:1;fill-rule:nonzero" id="rect2798" width="128" height="126" x="0" y="378" transform="matrix(0.9375,0,0,1,240,0)"/><rect style="fill:#090909;fill-opacity:1;fill-rule:nonzero" id="rect2800" width="32" height="126" x="480" y="378"/><rect style="fill:#1d1d1d;fill-opacity:1;fill-rule:nonzero" id="rect2802" width="32" height="126" x="544" y="378"/></g></svg>