<svg xmlns="http://www.w3.org/2000/svg" xmlns:svg="http://www.w3.org/2000/svg" id="SVGRoot" width="256" height="256" version="1.1" viewBox="0 0 256 256"><metadata id="metadata170"/><g id="layer1"><g id="g61" class="Group" transform="matrix(0.04654545,0,0,0.04654545,-269.96361,-661.15433)"><g id="g63" class="com.sun.star.drawing.CustomShape"><g id="id4"><path style="fill:#c0392b;stroke:none" id="path66" d="M 8550,18100 H 5800 v -2500 h 5500 v 2500 z"/></g></g><g id="g68" class="com.sun.star.drawing.PolyPolygonShape"><g id="id5"><path style="fill:#f1c40f;stroke:none" id="path71" d="m 6300,17600 v -1500 h 2000 v 500 h 2500 v 1000 H 8300 7800 Z"/></g></g><g id="g73" class="com.sun.star.drawing.LineShape"><g id="id6"><path style="fill:none;stroke:#000;stroke-width:300;stroke-linejoin:round" id="path76" d="m 7100,16400 v 1000"/></g></g><g id="g78" class="com.sun.star.drawing.LineShape"><g id="id7"><path style="fill:none;stroke:#000;stroke-width:300;stroke-linejoin:round" id="path81" d="M 7600,16900 H 6600"/></g></g><g id="g83" class="com.sun.star.drawing.CustomShape"><g id="id8"><path style="fill:#000;stroke:none" id="path86" d="m 9550,16900 c 142,0 250,108 250,250 0,142 -108,250 -250,250 -142,0 -250,-108 -250,-250 0,-142 108,-250 250,-250 z m -250,0 z m 501,501 z"/></g></g><g id="g88" class="com.sun.star.drawing.CustomShape"><g id="id9"><path style="fill:#000;stroke:none" id="path91" d="m 10250,16901 c 142,0 250,108 250,250 0,142 -108,250 -250,250 -142,0 -250,-108 -250,-250 0,-142 108,-250 250,-250 z m -250,0 z m 501,501 z"/></g></g></g></g></svg>