<svg xmlns="http://www.w3.org/2000/svg" xmlns:xlink="http://www.w3.org/1999/xlink" id="Capa_1" x="0" y="0" version="1.1" viewBox="0 0 76 76" xml:space="preserve" style="enable-background:new 0 0 76 76"><g id="_x37_7_Essential_Icons_73_"><path id="Video" d="M74,12H2c-1.1,0-2,0.9-2,2v48c0,1.1,0.9,2,2,2h72c1.1,0,2-0.9,2-2V14C76,12.9,75.1,12,74,12z M14,60H4v-8h10V60 z M14,48H4v-8h10V48z M14,36H4v-8h10V36z M14,24H4v-8h10V24z M58,60H18V16h40V60z M72,60H62v-8h10V60z M72,48H62v-8h10V48z M72,36 H62v-8h10V36z M72,24H62v-8h10V24z"/></g></svg>