<svg xmlns="http://www.w3.org/2000/svg" xmlns:svg="http://www.w3.org/2000/svg" xmlns:xlink="http://www.w3.org/1999/xlink" id="svg20" width="512" height="512" version="1.1" viewBox="0 0 512 512"><metadata id="metadata24"/><defs id="0"><linearGradient id="6"><stop id="C" stop-color="#fff"/><stop id="D" offset="1" stop-color="#fff" stop-opacity="0"/></linearGradient><linearGradient id="7"><stop id="E" stop-color="#fff" stop-opacity=".8"/><stop id="F" offset="1" stop-color="#fff" stop-opacity="0"/></linearGradient><linearGradient id="8"><stop id="G" stop-color="#2e3436" stop-opacity=".5"/><stop id="H" offset="1" stop-color="#2e3436" stop-opacity=".015"/></linearGradient><radialGradient id="9" cx="24.431" cy="52.28" r="21.578" gradientTransform="matrix(11.840193,0,0,1.9355252,-33.261262,342.88299)" gradientUnits="userSpaceOnUse" xlink:href="#8"/><linearGradient id="A" x2="0" y1="4.076" y2="36.737" gradientTransform="matrix(15.813748,0,0,13.488916,696.04163,-19.263642)" gradientUnits="userSpaceOnUse" xlink:href="#7"/><linearGradient id="B" x1="1.586" x2="24.733" y1="-16.371" y2="27.934" gradientTransform="matrix(12.297751,0,0,12.292755,-39.146009,-39.02611)" gradientUnits="userSpaceOnUse" xlink:href="#6"/></defs><path id="2" fill="#7c0000" d="m 491.99998,256 a 236,235.9041 0 1 1 -471.999961,0 236,235.9041 0 1 1 471.999961,0 z" style="stroke-width:14.6051"/><path id="3" fill="#c00" d="m 256.22182,35.113543 c -119.10382,0 -218.427359,97.603067 -218.427383,220.880967 0,123.2779 99.323583,220.88098 218.427383,220.88096 119.10381,0 217.93317,-97.57068 217.93317,-220.88096 0,-123.31027 -98.82936,-220.880967 -217.93317,-220.880967 z" style="stroke-width:14.6051"/><path id="4" fill="none" stroke="url(#A)" stroke-width="12.298" d="m 256.22182,41.858 c -114.01609,0 -210.520483,93.96305 -210.520507,214.13651 0,120.17349 96.504447,214.13654 210.520507,214.13651 114.01778,0 210.02633,-93.91441 210.02633,-214.13651 C 466.24815,135.77238 370.2396,41.858 256.22182,41.858 Z" opacity=".8" style="stroke:url(#A)"/><path id="5" fill="url(#B)" d="M 256.38432,35.114568 C 137.28052,35.114568 37.714964,132.72208 37.71494,256 c 0,0.13029 -2.18e-4,0.25395 0,0.38414 136.1246,-53.18436 275.81193,-80.7749 410.82174,-104.48841 C 411.63857,82.00861 338.97815,35.114568 256.38432,35.114568 Z" opacity=".6" style="fill:url(#B);stroke-width:12.2952"/></svg>