<svg xmlns="http://www.w3.org/2000/svg" xmlns:xlink="http://www.w3.org/1999/xlink" id="Layer_1" x="0" y="0" version="1.1" viewBox="0 0 495 495" xml:space="preserve" style="enable-background:new 0 0 495 495"><g><path style="fill:#9bfbff" d="M90.003,267.5v-40H227.5V90.256h20V40C133.08,40,40,133.08,40,247.5S133.08,455,247.5,455V267.5 H90.003z"/><path style="fill:#46f8ff" d="M354.538,69.799v74.818h-40v-93.5C293.499,43.915,270.949,40,247.5,40v50.256h20V267.5h-20V455 C361.92,455,455,361.92,455,247.5C455,172.213,414.698,106.171,354.538,69.799z"/><polygon style="fill:#003f8a" points="227.5 227.5 90.003 227.5 90.003 267.5 267.5 267.5 267.5 90.256 227.5 90.256"/><path style="fill:#005ece" d="M452.22,108.38C480.21,149.49,495,197.59,495,247.5c0,66.11-25.74,128.26-72.49,175.01 S313.61,495,247.5,495v-40C361.92,455,455,361.92,455,247.5c0-73.78-38.58-140.69-100.46-177.83v74.95h-40V17.37h126.55v40h-35.1 C423.57,72.04,439.13,89.16,452.22,108.38z"/><path style="fill:#2488ff" d="M266.01,0.69l-2.95,39.89C257.87,40.19,252.63,40,247.5,40C133.08,40,40,133.08,40,247.5 S133.08,455,247.5,455v40c-66.11,0-128.26-25.74-175.01-72.49S0,313.61,0,247.5S25.74,119.24,72.49,72.49S181.39,0,247.5,0 C253.62,0,259.84,0.23,266.01,0.69z"/></g></svg>