<svg xmlns="http://www.w3.org/2000/svg" xmlns:cc="http://web.resource.org/cc/" xmlns:svg="http://www.w3.org/2000/svg" xmlns:xlink="http://www.w3.org/1999/xlink" id="svg2" width="48" height="48" version="1.0"><defs id="defs4"><linearGradient id="linearGradient6950"><stop id="stop6952" offset="0" style="stop-color:#fcaf3e;stop-opacity:1"/><stop id="stop6954" offset="1" style="stop-color:#fff;stop-opacity:1"/></linearGradient><linearGradient id="linearGradient3263"><stop style="stop-color:white;stop-opacity:1" id="stop3265" offset="0"/><stop style="stop-color:white;stop-opacity:0" id="stop3267" offset="1"/></linearGradient><linearGradient id="linearGradient3209"><stop style="stop-color:black;stop-opacity:1" id="stop3211" offset="0"/><stop style="stop-color:black;stop-opacity:0" id="stop3213" offset="1"/></linearGradient><radialGradient id="radialGradient6966" cx="12.156" cy="16.969" r="7.844" fx="12.156" fy="16.969" gradientTransform="matrix(1,0,0,0.537849,0,7.842131)" gradientUnits="userSpaceOnUse" xlink:href="#linearGradient3209"/><linearGradient id="linearGradient6968" x1="22.125" x2="22.125" y1="-75.956" y2="-148.643" gradientUnits="userSpaceOnUse" xlink:href="#linearGradient6950"/><linearGradient id="linearGradient6970" x1="18.5" x2="26.262" y1="5.625" y2="33.009" gradientTransform="matrix(-1,0,0,1,48.99999,-118)" gradientUnits="userSpaceOnUse" xlink:href="#linearGradient3263"/><linearGradient id="linearGradient6972" x1="19.375" x2="17.168" y1="27.371" y2="43.64" gradientTransform="matrix(-1,0,0,1,48.99999,-118)" gradientUnits="userSpaceOnUse" xlink:href="#linearGradient3263"/></defs><metadata id="metadata7"/><g id="layer1" style="display:inline"><g style="display:inline" id="g6956" transform="matrix(-1,0,0,1,49,120)"><path id="path6958" d="M 20 16.96875 A 7.84375 4.21875 0 1 1 4.3125,16.96875 A 7.84375 4.21875 0 1 1 20 16.96875 z" transform="matrix(-2.67729,0,0,2.133333,57.5458,-117.2)" style="opacity:.15;color:#000;fill:url(#radialGradient6966);fill-opacity:1;fill-rule:nonzero;stroke:none;stroke-width:1;stroke-linecap:round;stroke-linejoin:miter;marker:none;marker-start:none;marker-mid:none;marker-end:none;stroke-miterlimit:4;stroke-dasharray:none;stroke-dashoffset:1.4;stroke-opacity:1;visibility:visible;display:inline;overflow:visible"/><path style="color:#000;fill:url(#linearGradient6968);fill-opacity:1;fill-rule:nonzero;stroke:#ce5c00;stroke-width:.99999994;stroke-linecap:round;stroke-linejoin:miter;marker:none;marker-start:none;marker-mid:none;marker-end:none;stroke-miterlimit:4;stroke-dashoffset:1.4;stroke-opacity:1;visibility:visible;display:inline;overflow:visible" id="path6960" d="M 36.84375,-115.5 C 25.398954,-115.5 16.5,-106.41493 16.5,-95.5 L 16.5,-92.5 L 10,-92.5 C 9.601905,-92.496959 9.243526,-92.258098 9.087523,-91.89183 C 8.93152,-91.525563 9.007607,-91.101651 9.28125,-90.8125 L 22.25,-76.78125 C 22.439303,-76.576476 22.705506,-76.460041 22.984375,-76.460041 C 23.263244,-76.460041 23.529447,-76.576476 23.71875,-76.78125 L 36.65625,-90.8125 C 36.933974,-91.105757 37.008042,-91.537281 36.844006,-91.906364 C 36.679969,-92.275446 36.310029,-92.509633 35.90625,-92.5 L 29.5,-92.5 L 29.5,-95.5 C 29.500001,-97.607932 30.224447,-99.378169 31.5,-100.59375 C 32.778286,-101.81193 34.631337,-102.5 36.84375,-102.5 L 45.5,-102.5 C 46.052262,-102.50006 46.499945,-102.94774 46.5,-103.5 L 46.5,-114.5 C 46.499945,-115.05226 46.052262,-115.49994 45.5,-115.5 L 36.84375,-115.5 z"/><path id="path6962" d="M 17.499993,-91.5 L 17.499993,-95.5 C 17.499993,-105.87535 25.896261,-114.5 36.812493,-114.5 L 45.499993,-114.5 L 45.499993,-103.5 L 36.843743,-103.5 C 34.420315,-103.5 32.303004,-102.73293 30.812493,-101.3125 C 29.321982,-99.892067 28.499993,-97.841924 28.499993,-95.5 L 28.499993,-91.5" style="opacity:1;color:#000;fill:none;fill-opacity:1;fill-rule:nonzero;stroke:url(#linearGradient6970);stroke-width:.99999994;stroke-linecap:round;stroke-linejoin:miter;marker:none;marker-start:none;marker-mid:none;marker-end:none;stroke-miterlimit:4;stroke-dashoffset:1.4;stroke-opacity:1;visibility:visible;display:inline;overflow:visible"/><path id="path6964" d="M 28.499993,-91.5 L 35.906243,-91.5 L 22.968743,-77.46875 L 9.999993,-91.5 L 17.499993,-91.5" style="opacity:1;color:#000;fill:none;fill-opacity:1;fill-rule:nonzero;stroke:url(#linearGradient6972);stroke-width:.99999994;stroke-linecap:round;stroke-linejoin:round;marker:none;marker-start:none;marker-mid:none;marker-end:none;stroke-miterlimit:4;stroke-dashoffset:1.4;stroke-opacity:1;visibility:visible;display:inline;overflow:visible"/></g></g></svg>