<svg xmlns="http://www.w3.org/2000/svg" xmlns:xlink="http://www.w3.org/1999/xlink" id="Capa_1" x="0" y="0" version="1.1" viewBox="0 0 512.001 512.001" xml:space="preserve" style="enable-background:new 0 0 512.001 512.001"><path style="fill:#9e8cec" d="M491.243,235.243H20.757C9.292,235.243,0,244.538,0,256c0,11.465,9.292,20.757,20.757,20.757h470.487	c11.465,0,20.757-9.292,20.757-20.757C512,244.538,502.708,235.243,491.243,235.243z"/><path style="fill:#6a56cf" d="M491.243,235.243H256v41.514h235.243c11.465,0,20.757-9.292,20.757-20.757	C512,244.538,502.708,235.243,491.243,235.243z"/><path style="fill:#dd9520" d="M214.486,27.676c-11.462,0-20.757,9.295-20.757,20.757v415.135c0,11.465,9.295,20.757,20.757,20.757	c11.465,0,20.757-9.292,20.757-20.757V48.432C235.243,36.971,225.951,27.676,214.486,27.676z"/><path style="fill:#e9d535" d="M131.459,110.703c-11.462,0-20.757,9.295-20.757,20.757v249.081c0,11.465,9.295,20.757,20.757,20.757	c11.465,0,20.757-9.292,20.757-20.757V131.459C152.216,119.998,142.924,110.703,131.459,110.703z"/><path style="fill:#f4c514" d="M48.432,152.216c-11.465,0-20.757,9.295-20.757,20.757v166.054c0,11.465,9.292,20.757,20.757,20.757	c11.462,0,20.757-9.292,20.757-20.757V172.973C69.189,161.511,59.894,152.216,48.432,152.216z"/><path style="fill:#2d4175" d="M463.568,111.857c-11.462,0-20.757,9.295-20.757,20.757v249.081c0,11.465,9.295,20.757,20.757,20.757	c11.465,0,20.757-9.292,20.757-20.757V132.614C484.324,121.152,475.032,111.857,463.568,111.857z"/><path style="fill:#5b699c" d="M380.541,76.108c-11.462,0-20.757,9.295-20.757,20.757v318.27c0,11.465,9.295,20.757,20.757,20.757	c11.465,0,20.757-9.292,20.757-20.757V96.865C401.297,85.403,392.005,76.108,380.541,76.108z"/><path style="fill:#af6d00" d="M297.514,138.378c-11.462,0-20.757,9.295-20.757,20.757v193.73c0,11.465,9.295,20.757,20.757,20.757	c11.465,0,20.757-9.292,20.757-20.757v-193.73C318.27,147.673,308.978,138.378,297.514,138.378z"/></svg>