<svg xmlns="http://www.w3.org/2000/svg" xmlns:cc="http://web.resource.org/cc/" xmlns:svg="http://www.w3.org/2000/svg" id="Layer_1" width="138.219" height="113.275" space="preserve" version="1.1" viewBox="0 0 138.219 113.275" style="overflow:visible;enable-background:new 0 0 138.219 113.275"><metadata/><g id="g3"><radialGradient id="XMLID_2_" cx="-311.769" cy="461.127" r="1.809" gradientTransform="matrix(34.9181 0 0 -34.9181 10955.6074 16158.3066)" gradientUnits="userSpaceOnUse"><stop id="stop6" offset="0" style="stop-color:#8bbbff"/><stop id="stop8" offset="1" style="stop-color:#0d56ac"/></radialGradient><path id="path10" d="M137.415,103.996c0,9.3-7.687,9.279-14.314,9.279c-9.076,0-18.152,0-27.23,0 c-23.381,0-46.764,0-70.147,0c-5.734,0-11.467,0-17.201,0C0.115,113.275,0,105.103,0,99.056c0-22.022,0-44.044,0-66.065 c0-7.597,0-15.193,0-22.792C0,2.999,5.117,0,11.474,0c19.817,0,39.633,0,59.45,0c18.746,0,37.493,0,56.241,0 c15.317,0,10.25,27.044,10.25,36.708C137.415,59.136,137.415,81.566,137.415,103.996" style="fill:url(#XMLID_2_)"/><path id="path12" d="M134.681,104.296c0,8.132-9.604,6.725-14.953,6.725c-9.638,0-19.275,0-28.914,0 c-22.883,0-45.767,0-68.649,0c-4.443,0-10.12,0.965-14.498-0.239c-6.801-1.875-4.933-12.12-4.933-17.38c0-22.698,0-45.396,0-68.094 c0-5.158-0.896-11.226,0-16.329c0-8.132,9.595-6.725,14.945-6.725c21.982,0,43.962,0,65.943,0c10.54,0,21.08,0,31.62,0 c4.446,0,10.12-0.963,14.499,0.24c6.808,1.87,4.938,12.118,4.938,17.38c0,11.002,0,22.004,0,33.005 C134.681,70.018,134.681,87.158,134.681,104.296" style="fill:#f4f4f4"/><path id="path14" d="M127.955,2.254c-2.022,0-4.045,0-6.067,0 c6.773,0,6.388,6.945,6.388,11.663c0,3.823-1.803,8.119,2.521,8.119c5.552,0,3.885-1.944,3.885-7.279 C134.681,9.742,135.165,2.254,127.955,2.254" style="fill-rule:evenodd;clip-rule:evenodd;fill:#68a0f2"/><path id="path16" d="M128.275,8.648c0-8.114-10.622-6.394-15.863-6.394 c-10.131,0-20.261,0-30.392,0c-21.862,0-43.721,0-65.584,0c-5.874,0-13.702-0.893-13.702,7.56c0,1.079-0.024,12.25,0.023,12.25 c1.451,0,2.898,0,4.349,0c20.219,0,40.438,0,60.657,0c16.135,0,32.27,0,48.406,0c3.839,0,7.68,0,11.52,0 C129.022,22.064,128.275,10.546,128.275,8.648" style="fill-rule:evenodd;clip-rule:evenodd;fill:#7fb5f7"/><path id="path18" d="M125.228,32.012c0,3.837-112.681,3.837-112.681,0C12.546,28.171,125.228,28.171,125.228,32.012" style="fill:#c6c6c6"/><path id="path20" d="M12.546,103.753c-3.985,0-3.985-71.742,0-71.742S16.531,103.753,12.546,103.753" style="fill:#c6c6c6"/><path id="path22" d="M9.903,101.212c0-3.835,115.865-3.835,115.865,0C125.769,105.054,9.903,105.054,9.903,101.212" style="fill:#fff"/><path id="path24" d="M125.769,29.471c4.099,0,4.099,71.742,0,71.742C121.676,101.212,121.676,29.471,125.769,29.471" style="fill:#fff"/><path id="path26" d="M132.36,7.899c0,0.583-125.187,0.583-125.187,0 C7.174,3.092,132.36,3.092,132.36,7.899" style="fill-rule:evenodd;clip-rule:evenodd;fill:#7ed8fc"/></g></svg>