<svg xmlns="http://www.w3.org/2000/svg" xmlns:svg="http://www.w3.org/2000/svg" xmlns:xlink="http://www.w3.org/1999/xlink" id="svg3186" width="256" height="256" version="1.0"><defs id="defs3188"><radialGradient id="radialGradient3163" cx="53.198" cy="59.187" r="40.029" gradientTransform="matrix(0.6667,0,0,0.7574,20.7214,14.064)" gradientUnits="userSpaceOnUse"><stop style="stop-color:#f40000;stop-opacity:.94117647" id="stop3165" offset="0"/><stop style="stop-color:#cb0006;stop-opacity:1" id="stop3175" offset="1"/></radialGradient><linearGradient id="XMLID_9_" x1="11.949" x2="104.052" y1="34" y2="34" gradientTransform="translate(559.14286,-264.28571)" gradientUnits="userSpaceOnUse"><stop id="stop56" offset="0" style="stop-color:#fff"/><stop id="stop58" offset=".8" style="stop-color:#fff;stop-opacity:0"/></linearGradient><radialGradient id="XMLID_8_" cx="53.198" cy="59.187" r="40.029" gradientTransform="matrix(0.6667,0,0,0.7574,20.7214,14.064)" gradientUnits="userSpaceOnUse"><stop id="stop41" offset="0" style="stop-color:#323232"/><stop id="stop43" offset=".208" style="stop-color:#363636"/><stop id="stop45" offset=".428" style="stop-color:#434343"/><stop id="stop47" offset=".653" style="stop-color:#585858"/><stop id="stop49" offset=".88" style="stop-color:#757575"/><stop id="stop51" offset="1" style="stop-color:#888"/></radialGradient><radialGradient id="XMLID_7_" cx="58" cy="58" r="48" gradientTransform="translate(559.14286,-264.28571)" gradientUnits="userSpaceOnUse"><stop id="stop26" offset="0" style="stop-color:#fff"/><stop id="stop28" offset=".574" style="stop-color:#fff"/><stop id="stop30" offset=".684" style="stop-color:#fbfbfb"/><stop id="stop32" offset=".8" style="stop-color:#eee"/><stop id="stop34" offset=".9" style="stop-color:#ddd"/><stop id="stop36" offset="1" style="stop-color:#bbb"/></radialGradient><filter id="AI_Sfocatura_4"><feGaussianBlur id="feGaussianBlur6" stdDeviation="4"/></filter><linearGradient id="XMLID_6_" x1="58.001" x2="58.001" y1="116" y2="0" gradientUnits="userSpaceOnUse"><stop id="stop9" offset="0" style="stop-color:#555"/><stop id="stop17" offset="1" style="stop-color:#888"/></linearGradient><linearGradient id="linearGradient3242" x1="11.949" x2="104.052" y1="34" y2="34" gradientTransform="matrix(2,0,0,2,12.000001,-115.99999)" gradientUnits="userSpaceOnUse" xlink:href="#XMLID_9_"/><radialGradient id="radialGradient3246" cx="58" cy="58" r="48" gradientTransform="matrix(2.1666666,0,0,2.1666666,2.3333346,-125.66666)" gradientUnits="userSpaceOnUse" xlink:href="#XMLID_7_"/><linearGradient id="linearGradient3251" x1="58.001" x2="58.001" y1="116" y2="0" gradientTransform="matrix(2.2068966,0,0,2.2068966,0,-128)" gradientUnits="userSpaceOnUse" xlink:href="#XMLID_6_"/><radialGradient id="radialGradient4148" cx="63.75" cy="63.875" r="24.25" fx="63.75" fy="63.875" gradientTransform="matrix(1.9793814,0,0,1.9793816,1.8144346,-126.43299)" gradientUnits="userSpaceOnUse" spreadMethod="pad" xlink:href="#radialGradient3163"/></defs><metadata id="metadata3191"/><g id="layer1" transform="translate(0,128)"><circle style="fill:url(#linearGradient3251);stroke-width:2.20689654" id="circle19" cx="128" cy="0" r="128"/><g style="opacity:.8;filter:url(#AI_Sfocatura_4)" id="g21" transform="matrix(2.1666666,0,0,2.1666666,2.3333371,-125.66666)"><path id="path23" d="m 10,58 c 0,26.467 21.533,48 48,48 26.467,0 48,-21.533 48,-48 C 106,31.533 84.467,10 58,10 31.533,10 10,31.533 10,58 Z"/></g><path style="fill:url(#radialGradient3246);stroke-width:2" id="path38" d="M 23.999999,8e-7 C 23.999999,57.345164 70.654826,104 127.99999,104 c 57.34517,0 104,-46.654836 104,-103.9999992 C 231.99999,-57.345166 185.34516,-103.99999 127.99999,-103.99999 70.654826,-103.99999 23.999999,-57.345166 23.999999,8e-7 Z"/><ellipse id="path2195" cx="128" cy="0" rx="48" ry="48" style="opacity:1;fill:url(#radialGradient4148);fill-opacity:1;fill-rule:evenodd;stroke:none;stroke-width:15.87602139;stroke-linecap:round;stroke-linejoin:round;stroke-miterlimit:4;stroke-dasharray:none;stroke-opacity:1"/><path style="opacity:.5;fill:url(#linearGradient3242);stroke-width:2" id="path60" d="m 127.99999,8e-7 c 35.578,0 67.93402,-10.2599978 92.10399,-27.0179978 -11.704,-39.817999 -48.55199,-68.981998 -92.10399,-68.981998 -43.553994,0 -80.401993,29.165997 -92.101991,68.981998 C 60.063999,-10.259997 92.419996,8e-7 127.99999,8e-7 Z"/></g></svg>